<svg width="20" height="19" viewBox="0 0 20 19" fill="none" xmlns="http://www.w3.org/2000/svg">
<g clip-path="url(#clip0_221_1328)">
<path d="M8.14764 1.19147C4.02264 1.19147 0.647644 4.56647 0.647644 8.69147C0.647644 12.8165 4.02264 16.1915 8.14764 16.1915C10.0285 16.1915 11.7482 15.4942 13.0695 14.3399C13.2219 14.2667 13.3478 14.1407 13.4211 13.9883C14.7863 12.629 15.6476 10.7598 15.6476 8.69147C15.6476 4.56647 12.2726 1.19147 8.14764 1.19147ZM8.92108 2.73834C9.87323 2.86432 10.7639 3.22467 11.5226 3.74615C10.6086 4.54889 9.13202 6.20416 8.94452 8.66803C8.68964 8.67975 8.42304 8.69147 8.14764 8.69147C7.8869 8.69147 7.63788 8.67682 7.39764 8.66803C7.40057 6.60553 7.79901 5.10553 8.19452 4.12115C8.57538 3.17487 8.89471 2.77057 8.92108 2.73834ZM7.16327 2.78522C7.04901 3.00787 6.92889 3.27155 6.81171 3.55865C6.3576 4.68073 5.91815 6.33893 5.89764 8.5274C5.62811 8.48932 5.36151 8.43658 5.12421 8.38678C5.00702 5.92584 4.47968 4.45514 4.32733 4.07428C5.12128 3.41803 6.10565 2.96393 7.16327 2.78522ZM12.6476 4.75397C13.2717 5.46881 13.7287 6.33893 13.9601 7.28522C13.8459 7.38483 13.5764 7.59283 12.8586 7.89459C12.299 8.1319 11.4933 8.34869 10.468 8.50397C10.7199 6.4942 12.006 5.26373 12.6476 4.75397ZM3.17889 5.36334C3.3371 5.93756 3.51288 6.75494 3.60077 7.94147C3.55096 7.92096 3.48358 7.9151 3.43671 7.89459C2.71893 7.59283 2.4494 7.38483 2.33514 7.28522C2.50507 6.59381 2.79218 5.94049 3.17889 5.36334ZM2.14764 8.94928C2.35272 9.06354 2.58124 9.16315 2.85077 9.2774C3.07635 9.37115 3.34882 9.47076 3.62421 9.55865C3.59198 10.5606 3.39862 11.4395 3.20233 12.0665C2.59003 11.17 2.19745 10.1006 2.14764 8.94928ZM14.1476 8.94928C14.0861 10.4053 13.4826 11.7354 12.5539 12.7462C11.9182 12.4063 10.7492 11.5772 10.4914 10.0274C11.7336 9.85748 12.7297 9.57916 13.4445 9.2774C13.7141 9.16315 13.9426 9.06354 14.1476 8.94928ZM5.12421 9.93365C5.37909 9.98053 5.66034 10.0157 5.94452 10.0508C6.07929 11.6534 6.4455 12.919 6.81171 13.8243C6.92889 14.1114 7.04901 14.3751 7.16327 14.5977C6.11737 14.4219 5.14179 13.9766 4.35077 13.3321C4.59979 12.7256 5.0246 11.4864 5.12421 9.93365ZM7.46796 10.168C7.68768 10.1768 7.91327 10.1915 8.14764 10.1915C8.43768 10.1915 8.72186 10.1797 8.99139 10.168C9.26093 12.0137 10.4474 13.1446 11.3586 13.754C10.6379 14.2139 9.80292 14.5274 8.92108 14.6446C8.89471 14.6124 8.57538 14.2081 8.19452 13.2618C7.89862 12.5264 7.59979 11.501 7.46796 10.168Z" fill="white"/>
</g>
<defs>
<clipPath id="clip0_221_1328">
<rect width="18.55" height="18.55" fill="white" transform="translate(0.486755 0.129333)"/>
</clipPath>
</defs>
</svg>
