<svg width="20" height="20" viewBox="0 0 20 20" fill="none" xmlns="http://www.w3.org/2000/svg">
<path d="M8.49994 1.61731C4.37494 1.61731 0.999939 4.99231 0.999939 9.11731C0.999939 13.2423 4.37494 16.6173 8.49994 16.6173C10.3808 16.6173 12.1005 15.92 13.4218 14.7657C13.5742 14.6925 13.7001 14.5665 13.7734 14.4142C15.1386 13.0548 15.9999 11.1857 15.9999 9.11731C15.9999 4.99231 12.6249 1.61731 8.49994 1.61731ZM9.27338 3.16418C10.2255 3.29016 11.1161 3.65051 11.8749 4.172C10.9609 4.97473 9.48431 6.63001 9.29681 9.09387C9.04193 9.10559 8.77533 9.11731 8.49994 9.11731C8.2392 9.11731 7.99017 9.10266 7.74994 9.09387C7.75287 7.03137 8.15131 5.53137 8.54681 4.547C8.92767 3.60071 9.24701 3.19641 9.27338 3.16418ZM7.51556 3.21106C7.40131 3.43372 7.28119 3.69739 7.164 3.9845C6.7099 5.10657 6.27045 6.76477 6.24994 8.95325C5.98041 8.91516 5.71381 8.86243 5.4765 8.81262C5.35931 6.35168 4.83197 4.88098 4.67963 4.50012C5.47357 3.84387 6.45795 3.38977 7.51556 3.21106ZM12.9999 5.17981C13.624 5.89465 14.081 6.76477 14.3124 7.71106C14.1982 7.81067 13.9286 8.01868 13.2109 8.32043C12.6513 8.55774 11.8456 8.77454 10.8203 8.92981C11.0722 6.92004 12.3583 5.68958 12.9999 5.17981ZM3.53119 5.78918C3.68939 6.3634 3.86517 7.18079 3.95306 8.36731C3.90326 8.3468 3.83588 8.34094 3.789 8.32043C3.07123 8.01868 2.8017 7.81067 2.68744 7.71106C2.85736 7.01965 3.14447 6.36633 3.53119 5.78918ZM2.49994 9.37512C2.70502 9.48938 2.93353 9.58899 3.20306 9.70325C3.42865 9.797 3.70111 9.89661 3.9765 9.9845C3.94427 10.9865 3.75092 11.8654 3.55463 12.4923C2.94232 11.5958 2.54974 10.5265 2.49994 9.37512ZM14.4999 9.37512C14.4384 10.8312 13.8349 12.1613 12.9062 13.172C12.2704 12.8322 11.1015 12.0031 10.8437 10.4532C12.0859 10.2833 13.082 10.005 13.7968 9.70325C14.0663 9.58899 14.2949 9.48938 14.4999 9.37512ZM5.4765 10.3595C5.73138 10.4064 6.01263 10.4415 6.29681 10.4767C6.43158 12.0792 6.79779 13.3448 7.164 14.2501C7.28119 14.5372 7.40131 14.8009 7.51556 15.0236C6.46967 14.8478 5.49408 14.4025 4.70306 13.7579C4.95209 13.1515 5.37689 11.9122 5.4765 10.3595ZM7.82025 10.5939C8.03998 10.6027 8.26556 10.6173 8.49994 10.6173C8.78998 10.6173 9.07416 10.6056 9.34369 10.5939C9.61322 12.4396 10.7997 13.5704 11.7109 14.1798C10.9902 14.6398 10.1552 14.9532 9.27338 15.0704C9.24701 15.0382 8.92767 14.6339 8.54681 13.6876C8.25092 12.9523 7.95209 11.9269 7.82025 10.5939Z" fill="white"/>
</svg>
