<svg width="20" height="19" viewBox="0 0 20 19" fill="none" xmlns="http://www.w3.org/2000/svg">
<g clip-path="url(#clip0_221_1516)">
<path d="M8.14767 1.19147C4.02267 1.19147 0.647675 4.56647 0.647675 8.69147C0.647675 12.8165 4.02267 16.1915 8.14767 16.1915C10.0285 16.1915 11.7483 15.4942 13.0695 14.3399C13.2219 14.2667 13.3479 14.1407 13.4211 13.9883C14.7863 12.629 15.6477 10.7598 15.6477 8.69147C15.6477 4.56647 12.2727 1.19147 8.14767 1.19147ZM8.92111 2.73834C9.87326 2.86432 10.7639 3.22467 11.5227 3.74615C10.6086 4.54889 9.13205 6.20416 8.94455 8.66803C8.68967 8.67975 8.42307 8.69147 8.14767 8.69147C7.88693 8.69147 7.63791 8.67682 7.39767 8.66803C7.4006 6.60553 7.79904 5.10553 8.19455 4.12115C8.57541 3.17487 8.89475 2.77057 8.92111 2.73834ZM7.1633 2.78522C7.04904 3.00787 6.92892 3.27155 6.81174 3.55865C6.35764 4.68073 5.91818 6.33893 5.89767 8.5274C5.62814 8.48932 5.36154 8.43658 5.12424 8.38678C5.00705 5.92584 4.47971 4.45514 4.32736 4.07428C5.12131 3.41803 6.10568 2.96393 7.1633 2.78522ZM12.6477 4.75397C13.2717 5.46881 13.7287 6.33893 13.9602 7.28522C13.8459 7.38483 13.5764 7.59283 12.8586 7.89459C12.299 8.1319 11.4934 8.34869 10.468 8.50397C10.7199 6.4942 12.0061 5.26373 12.6477 4.75397ZM3.17892 5.36334C3.33713 5.93756 3.51291 6.75494 3.6008 7.94147C3.551 7.92096 3.48361 7.9151 3.43674 7.89459C2.71896 7.59283 2.44943 7.38483 2.33517 7.28522C2.5051 6.59381 2.79221 5.94049 3.17892 5.36334ZM2.14767 8.94928C2.35275 9.06354 2.58127 9.16315 2.8508 9.2774C3.07639 9.37115 3.34885 9.47076 3.62424 9.55865C3.59201 10.5606 3.39865 11.4395 3.20236 12.0665C2.59006 11.17 2.19748 10.1006 2.14767 8.94928ZM14.1477 8.94928C14.0862 10.4053 13.4826 11.7354 12.5539 12.7462C11.9182 12.4063 10.7492 11.5772 10.4914 10.0274C11.7336 9.85748 12.7297 9.57916 13.4445 9.2774C13.7141 9.16315 13.9426 9.06354 14.1477 8.94928ZM5.12424 9.93365C5.37912 9.98053 5.66037 10.0157 5.94455 10.0508C6.07932 11.6534 6.44553 12.919 6.81174 13.8243C6.92892 14.1114 7.04904 14.3751 7.1633 14.5977C6.1174 14.4219 5.14182 13.9766 4.3508 13.3321C4.59982 12.7256 5.02463 11.4864 5.12424 9.93365ZM7.46799 10.168C7.68771 10.1768 7.9133 10.1915 8.14767 10.1915C8.43771 10.1915 8.72189 10.1797 8.99142 10.168C9.26096 12.0137 10.4475 13.1446 11.3586 13.754C10.6379 14.2139 9.80295 14.5274 8.92111 14.6446C8.89475 14.6124 8.57541 14.2081 8.19455 13.2618C7.89865 12.5264 7.59982 11.501 7.46799 10.168Z" fill="white"/>
</g>
<defs>
<clipPath id="clip0_221_1516">
<rect width="18.55" height="18.55" fill="white" transform="translate(0.486786 0.129333)"/>
</clipPath>
</defs>
</svg>
