<svg width="20" height="19" viewBox="0 0 20 19" fill="none" xmlns="http://www.w3.org/2000/svg">
<g clip-path="url(#clip0_221_1741)">
<path d="M9.99994 0.894676C5.04994 0.894676 0.999939 4.94468 0.999939 9.89468C0.999939 14.8447 5.04994 18.8947 9.99994 18.8947C12.257 18.8947 14.3206 18.058 15.9062 16.6728C16.089 16.5849 16.2402 16.4337 16.3281 16.2509C17.9663 14.6197 18.9999 12.3767 18.9999 9.89468C18.9999 4.94468 14.9499 0.894676 9.99994 0.894676ZM10.9281 2.75093C12.0706 2.9021 13.1394 3.33452 14.0499 3.9603C12.9531 4.92358 11.1812 6.90991 10.9562 9.86655C10.6503 9.88061 10.3304 9.89468 9.99994 9.89468C9.68705 9.89468 9.38822 9.8771 9.09994 9.86655C9.10345 7.39155 9.58158 5.59155 10.0562 4.4103C10.5132 3.27475 10.8964 2.7896 10.9281 2.75093ZM8.81869 2.80718C8.68158 3.07436 8.53744 3.39077 8.39681 3.7353C7.85189 5.08179 7.32455 7.07163 7.29994 9.6978C6.9765 9.6521 6.65658 9.58882 6.37181 9.52905C6.23119 6.57593 5.59838 4.81108 5.41556 4.35405C6.3683 3.56655 7.54955 3.02163 8.81869 2.80718ZM15.3999 5.16968C16.1488 6.02749 16.6972 7.07163 16.9749 8.20718C16.8378 8.32671 16.5144 8.57632 15.6531 8.93843C14.9816 9.22319 14.0148 9.48335 12.7843 9.66968C13.0867 7.25796 14.63 5.7814 15.3999 5.16968ZM4.03744 5.90093C4.22728 6.58999 4.43822 7.57085 4.54369 8.99468C4.48392 8.97007 4.40306 8.96304 4.34681 8.93843C3.48549 8.57632 3.16205 8.32671 3.02494 8.20718C3.22885 7.37749 3.57338 6.5935 4.03744 5.90093ZM2.79994 10.2041C3.04603 10.3412 3.32025 10.4607 3.64369 10.5978C3.91439 10.7103 4.24135 10.8298 4.57181 10.9353C4.53314 12.1376 4.30111 13.1923 4.06556 13.9447C3.3308 12.8689 2.8597 11.5857 2.79994 10.2041ZM17.1999 10.2041C17.1261 11.9513 16.4019 13.5474 15.2874 14.7603C14.5245 14.3525 13.1218 13.3576 12.8124 11.4978C14.3031 11.2939 15.4984 10.9599 16.3562 10.5978C16.6796 10.4607 16.9538 10.3412 17.1999 10.2041ZM6.37181 11.3853C6.67767 11.4416 7.01517 11.4837 7.35619 11.5259C7.51791 13.449 7.95736 14.9677 8.39681 16.0541C8.53744 16.3986 8.68158 16.715 8.81869 16.9822C7.56361 16.7712 6.39291 16.2369 5.44369 15.4634C5.74252 14.7357 6.25228 13.2486 6.37181 11.3853ZM9.18431 11.6666C9.44799 11.6771 9.71869 11.6947 9.99994 11.6947C10.348 11.6947 10.689 11.6806 11.0124 11.6666C11.3359 13.8814 12.7597 15.2384 13.8531 15.9697C12.9882 16.5216 11.9863 16.8978 10.9281 17.0384C10.8964 16.9998 10.5132 16.5146 10.0562 15.3791C9.70111 14.4966 9.34252 13.2662 9.18431 11.6666Z" fill="white"/>
</g>
<defs>
<clipPath id="clip0_221_1741">
<rect width="18.55" height="18.55" fill="white" transform="translate(0.83905 0.0240707)"/>
</clipPath>
</defs>
</svg>
