<svg width="20" height="20" viewBox="0 0 20 20" fill="none" xmlns="http://www.w3.org/2000/svg">
<g clip-path="url(#clip0_221_1772)">
<path d="M9.71422 2.61725C5.45422 2.61725 1.99994 6.07153 1.99994 10.3315C1.99994 14.5915 5.45422 18.0458 9.71422 18.0458C12.9885 18.0458 15.7917 15.9972 16.9146 13.1172L19.794 6.19147C19.794 6.19147 19.9999 5.73725 19.9999 5.18868C19.9999 3.76582 18.8514 2.61725 17.4285 2.61725H9.71422ZM9.71422 4.33153C13.0314 4.33153 15.7142 7.01439 15.7142 10.3315C15.7142 13.6487 13.0314 16.3315 9.71422 16.3315C8.31547 16.3315 7.03237 15.8496 6.01277 15.0492C6.11774 15.0956 6.23475 15.1148 6.35597 15.0893C6.66282 15.0251 6.62385 14.8074 6.58699 14.5888C6.54842 14.3548 6.70979 14.3433 6.86322 14.3544C7.15722 14.375 7.32785 14.2495 7.43242 13.9761C7.7427 13.1626 8.06437 12.3527 8.38666 11.5436C8.51351 11.2256 8.63839 11.1879 8.8621 11.4348C9.24782 11.8599 9.60845 12.3076 9.97873 12.7456C10.0019 12.773 10.0212 12.8092 10.029 12.8444C10.179 13.4949 10.3596 14.1406 10.4659 14.7981C10.5422 15.2678 10.8547 15.6211 11.3381 15.6468C11.4735 15.6537 11.656 15.6547 11.7349 15.5681C11.7863 15.5116 11.7239 15.3002 11.6545 15.1948C11.3991 14.8057 11.3434 14.3776 11.2963 13.9258C11.2165 13.1681 11.1743 12.383 10.5931 11.7813C10.4294 11.6116 10.2748 11.4318 10.4274 11.1669C10.4488 11.1301 10.4348 11.0456 10.4056 11.0079C10.1356 10.6564 9.88556 10.2845 9.57527 9.9716C9.37299 9.7676 9.29551 9.62007 9.44637 9.36892C9.52094 9.24549 9.60264 9.10514 9.61378 8.96714C9.63692 8.68171 9.76709 8.57722 10.0474 8.53522C10.4434 8.47607 10.8656 8.44124 11.1339 8.0581C11.1733 8.00067 11.3096 7.96472 11.3833 7.98444C11.6627 8.05986 11.833 7.99733 11.8604 7.66133L12.1182 7.60107C12.3368 7.49221 12.4889 7.41954 12.6389 7.34325C12.8146 7.25411 12.9811 7.14311 13.1646 7.0754C13.3248 7.01625 13.5027 7.00405 13.645 6.97662C13.5765 6.82834 13.5123 6.69129 13.4609 6.57986C13.1163 6.57986 12.7562 6.67732 12.5016 6.55475C12.2325 6.42446 12.0142 6.50399 11.7734 6.49113C11.6079 6.4817 11.4123 6.50633 11.2829 6.42919C10.928 6.21662 10.6307 6.36403 10.3152 6.50118C10.2381 6.53461 10.144 6.5285 10.0574 6.54136C10.0497 6.44707 10.0305 6.35353 10.0373 6.26011C10.0485 6.11525 10.1192 5.96272 10.0909 5.82986C10 5.403 9.62236 5.18868 9.22036 5.18868C8.77293 5.18868 8.50955 5.49252 8.48041 5.95709C8.46584 6.18595 8.37778 6.33902 8.22092 6.50787C7.94321 6.80873 7.59641 7.07573 7.52784 7.52573C7.44556 8.05802 7.35138 8.5872 7.27338 9.11948C7.23566 9.37405 7.21078 9.63243 7.20306 9.88957C7.19449 10.163 7.26809 10.4494 7.20809 10.7082C7.06323 11.3314 6.84944 11.9384 6.68744 12.5581C6.61287 12.8435 6.49273 13.0473 6.22873 13.211C5.63216 13.5813 5.4638 14.1336 5.70809 14.7344C5.7277 14.7828 5.75663 14.822 5.7851 14.8617C4.51788 13.7621 3.71422 12.1436 3.71422 10.3315C3.71422 7.01439 6.39708 4.33153 9.71422 4.33153ZM10.265 7.08377C10.4065 7.06137 10.5734 7.09052 10.7555 7.17752C10.4958 7.29752 10.2778 7.40637 10.0524 7.49895C10.0104 7.51609 9.92943 7.48137 9.89001 7.44537C9.87201 7.42909 9.89606 7.34336 9.92349 7.30307C10.0066 7.18136 10.1235 7.10616 10.265 7.08377Z" fill="white"/>
</g>
<defs>
<clipPath id="clip0_221_1772">
<rect width="18.55" height="18.55" fill="white" transform="translate(0.83905 0.981018)"/>
</clipPath>
</defs>
</svg>
