<svg width="20" height="19" viewBox="0 0 20 19" fill="none" xmlns="http://www.w3.org/2000/svg">
<g clip-path="url(#clip0_221_1768)">
<path d="M4.13246 0.61734C3.07668 0.61734 2.2322 1.56152 2.36505 2.61543V2.61717C2.6298 4.69696 3.6118 6.20842 4.43425 7.41987C5.25671 8.63132 5.84784 9.52221 5.84784 10.3858C5.84617 10.5035 5.86791 10.6203 5.91179 10.7295C5.95567 10.8387 6.02082 10.9381 6.10345 11.0219C6.18608 11.1057 6.28454 11.1722 6.3931 11.2177C6.50167 11.2631 6.61819 11.2865 6.73588 11.2865C6.85356 11.2865 6.97008 11.2631 7.07865 11.2177C7.18722 11.1722 7.28568 11.1057 7.3683 11.0219C7.45093 10.9381 7.51608 10.8387 7.55996 10.7295C7.60384 10.6203 7.62558 10.5035 7.62392 10.3858C7.62392 10.3715 7.62059 10.3584 7.62045 10.3442C8.48938 12.3094 9.4 13.0499 9.4 13.0499H12.9522C12.9522 13.0499 13.8628 12.3094 14.7317 10.3442C14.7316 10.3584 14.7282 10.3715 14.7282 10.3858C14.7266 10.5035 14.7483 10.6203 14.7922 10.7295C14.8361 10.8387 14.9012 10.9381 14.9839 11.0219C15.0665 11.1057 15.1649 11.1722 15.2735 11.2177C15.3821 11.2631 15.4986 11.2865 15.6163 11.2865C15.734 11.2865 15.8505 11.2631 15.9591 11.2177C16.0676 11.1722 16.1661 11.1057 16.2487 11.0219C16.3313 10.9381 16.3965 10.8387 16.4404 10.7295C16.4842 10.6203 16.506 10.5035 16.5043 10.3858C16.5043 9.52221 17.0954 8.63132 17.9179 7.41987C18.7404 6.20842 19.7224 4.69696 19.9871 2.61717C20.1219 1.56175 19.2755 0.61734 18.2197 0.61734H4.13246ZM18.2249 2.39169C18.0154 4.03723 17.2528 5.2383 16.4488 6.42256C16.1628 6.84387 15.8741 7.27275 15.6059 7.71299C15.9531 6.2947 16.2046 4.53881 16.2615 2.39342H18.2197C18.2296 2.39342 18.2249 2.39169 18.2249 2.39169ZM4.12726 2.39342C4.1269 2.39057 4.12259 2.39342 4.13246 2.39342H6.09066C6.14754 4.53881 6.39908 6.2947 6.74628 7.71299C6.47809 7.27275 6.18937 6.84388 5.90334 6.42256C5.09963 5.23873 4.33705 4.03804 4.12726 2.39342ZM7.62392 14.826C7.13372 14.826 6.73588 15.2238 6.73588 15.714C6.73588 16.2042 7.13372 16.6021 7.62392 16.6021H14.7282C15.2184 16.6021 15.6163 16.2042 15.6163 15.714C15.6163 15.2238 15.2184 14.826 14.7282 14.826H7.62392Z" fill="white"/>
</g>
<defs>
<clipPath id="clip0_221_1768">
<rect width="18.55" height="18.55" fill="white" transform="translate(0.83905 0.172394)"/>
</clipPath>
</defs>
</svg>
