<svg width="20" height="20" viewBox="0 0 20 20" fill="none" xmlns="http://www.w3.org/2000/svg">
<g clip-path="url(#clip0_221_1745)">
<path d="M6.18613 0.662198C5.20917 0.662198 4.41863 1.45274 4.41863 2.4297C4.41863 3.40666 5.20917 4.1972 6.18613 4.1972C7.16308 4.1972 7.95363 3.40666 7.95363 2.4297C7.95363 1.45274 7.16308 0.662198 6.18613 0.662198ZM15.7141 0.662198C15.4344 0.69672 15.2998 0.827901 15.2998 0.827901L6.02042 10.0797C5.79258 10.3075 5.79258 10.6803 6.02042 10.9082L9.1964 14.0842C9.42424 14.312 9.79707 14.312 10.0249 14.0842L19.2767 4.80478C19.2767 4.80478 20.0361 3.79675 18.172 1.93259C17.0052 0.765763 16.1801 0.603512 15.7141 0.662198ZM5.77187 11.9852V12.3719C5.77532 12.7585 5.63033 13.1486 5.35761 13.4213L1.93308 16.8183C1.69833 17.053 1.69833 17.4396 1.93308 17.6744L2.43019 18.1715C2.66493 18.4062 3.05157 18.4062 3.28632 18.1715L6.68323 14.747C6.96286 14.4673 7.33914 14.3258 7.73269 14.3327H8.11933L5.77187 11.9852Z" fill="white"/>
</g>
<defs>
<clipPath id="clip0_221_1745">
<rect width="18.55" height="18.55" fill="white" transform="translate(0.83905 0.83268)"/>
</clipPath>
</defs>
</svg>
