<svg width="20" height="20" viewBox="0 0 20 20" fill="none" xmlns="http://www.w3.org/2000/svg">
<path d="M17.3636 4.61728H2.6363C2.6363 4.61728 0.999939 9.76014 0.999939 12.3316C0.999939 14.6981 2.83185 16.6173 5.09085 16.6173C6.80903 16.6173 13.1908 16.6173 14.909 16.6173C17.168 16.6173 18.9999 14.6981 18.9999 12.3316C18.9999 9.76014 17.3636 4.61728 17.3636 4.61728ZM9.18176 11.4744H7.54539V13.1887H5.90903V11.4744H4.27267V9.76014H5.90903V8.04585H7.54539V9.76014H9.18176V11.4744ZM13.2727 9.76014C12.821 9.76014 12.4545 9.37614 12.4545 8.90299C12.4545 8.42985 12.821 8.04585 13.2727 8.04585C13.7243 8.04585 14.0908 8.42985 14.0908 8.90299C14.0908 9.37614 13.7243 9.76014 13.2727 9.76014ZM14.909 13.1887C14.4574 13.1887 14.0908 12.8047 14.0908 12.3316C14.0908 11.8584 14.4574 11.4744 14.909 11.4744C15.3607 11.4744 15.7272 11.8584 15.7272 12.3316C15.7272 12.8047 15.3607 13.1887 14.909 13.1887Z" fill="white"/>
</svg>
