<svg width="19" height="19" viewBox="0 0 19 19" fill="none" xmlns="http://www.w3.org/2000/svg">
<g clip-path="url(#clip0_221_1344)">
<path d="M16.6021 3.95697H1.87486C1.87486 3.95697 0.238495 9.09983 0.238495 11.6713C0.238495 14.0378 2.0704 15.957 4.3294 15.957C6.04759 15.957 12.4294 15.957 14.1476 15.957C16.4066 15.957 18.2385 14.0378 18.2385 11.6713C18.2385 9.09983 16.6021 3.95697 16.6021 3.95697ZM8.42031 10.8141H6.78395V12.5284H5.14759V10.8141H3.51122V9.09983H5.14759V7.38554H6.78395V9.09983H8.42031V10.8141ZM12.5112 9.09983C12.0596 9.09983 11.693 8.71583 11.693 8.24268C11.693 7.76954 12.0596 7.38554 12.5112 7.38554C12.9629 7.38554 13.3294 7.76954 13.3294 8.24268C13.3294 8.71583 12.9629 9.09983 12.5112 9.09983ZM14.1476 12.5284C13.6959 12.5284 13.3294 12.1444 13.3294 11.6713C13.3294 11.1981 13.6959 10.8141 14.1476 10.8141C14.5992 10.8141 14.9658 11.1981 14.9658 11.6713C14.9658 12.1444 14.5992 12.5284 14.1476 12.5284Z" fill="white"/>
</g>
<defs>
<clipPath id="clip0_221_1344">
<rect width="18.55" height="18.55" fill="white" transform="translate(0.0776062 0.129333)"/>
</clipPath>
</defs>
</svg>
