<svg width="19" height="19" viewBox="0 0 19 19" fill="none" xmlns="http://www.w3.org/2000/svg">
<g clip-path="url(#clip0_221_1340)">
<path d="M9.30508 1.76556C5.04508 1.76556 1.59079 5.21985 1.59079 9.47985C1.59079 13.7398 5.04508 17.1941 9.30508 17.1941C12.5794 17.1941 15.3826 15.1456 16.5054 12.2656L19.3849 5.33978C19.3849 5.33978 19.5908 4.88556 19.5908 4.33699C19.5908 2.91414 18.4422 1.76556 17.0194 1.76556H9.30508ZM9.30508 3.47985C12.6222 3.47985 15.3051 6.16271 15.3051 9.47985C15.3051 12.797 12.6222 15.4798 9.30508 15.4798C7.90632 15.4798 6.62322 14.998 5.60362 14.1975C5.70859 14.2439 5.8256 14.2631 5.94682 14.2377C6.25367 14.1734 6.2147 13.9557 6.17784 13.7371C6.13927 13.5031 6.30064 13.4916 6.45407 13.5027C6.74807 13.5233 6.9187 13.3978 7.02327 13.1244C7.33355 12.311 7.65522 11.501 7.97751 10.6919C8.10437 10.3739 8.22924 10.3362 8.45296 10.5831C8.83867 11.0082 9.1993 11.4559 9.56958 11.8939C9.59273 11.9213 9.61209 11.9575 9.61981 11.9927C9.76981 12.6433 9.95046 13.2889 10.0567 13.9464C10.133 14.4161 10.4455 14.7694 10.929 14.7951C11.0644 14.802 11.2469 14.803 11.3257 14.7165C11.3772 14.6599 11.3148 14.4486 11.2454 14.3431C10.9899 13.954 10.9342 13.5259 10.8871 13.0742C10.8074 12.3164 10.7651 11.5313 10.184 10.9296C10.0203 10.7599 9.86567 10.5801 10.0182 10.3152C10.0397 10.2784 10.0256 10.1939 9.99648 10.1562C9.72648 9.80476 9.47641 9.43277 9.16612 9.11992C8.96384 8.91592 8.88636 8.76838 9.03722 8.51724C9.11179 8.39381 9.19349 8.25345 9.20463 8.11545C9.22777 7.83002 9.35794 7.72553 9.63822 7.68353C10.0342 7.62439 10.4564 7.58956 10.7247 7.20641C10.7641 7.14898 10.9004 7.11304 10.9742 7.13275C11.2536 7.20818 11.4239 7.14565 11.4513 6.80965L11.7091 6.74938C11.9277 6.64052 12.0797 6.56785 12.2297 6.49157C12.4055 6.40243 12.572 6.29143 12.7554 6.22371C12.9157 6.16457 13.0936 6.15237 13.2359 6.12494C13.1673 5.97665 13.1032 5.8396 13.0517 5.72818C12.7072 5.72818 12.347 5.82564 12.0925 5.70306C11.8233 5.57278 11.6051 5.65231 11.3642 5.63945C11.1988 5.63002 11.0031 5.65465 10.8737 5.57751C10.5189 5.36493 10.2215 5.51235 9.90608 5.64949C9.82894 5.68292 9.73484 5.67681 9.64827 5.68967C9.64055 5.59539 9.62132 5.50185 9.62818 5.40842C9.63932 5.26356 9.71004 5.11103 9.68175 4.97818C9.59089 4.55132 9.21321 4.33699 8.81121 4.33699C8.36379 4.33699 8.1004 4.64084 8.07126 5.10541C8.05669 5.33426 7.96863 5.48733 7.81177 5.65619C7.53406 5.95705 7.18726 6.22405 7.11869 6.67405C7.03641 7.20633 6.94223 7.73551 6.86423 8.2678C6.82651 8.52237 6.80163 8.78074 6.79391 9.03789C6.78534 9.31131 6.85894 9.59767 6.79894 9.85652C6.65408 10.4797 6.44029 11.0867 6.27829 11.7064C6.20372 11.9918 6.08358 12.1956 5.81958 12.3593C5.22301 12.7296 5.05465 13.2819 5.29894 13.8828C5.31855 13.9311 5.34748 13.9704 5.37595 14.01C4.10873 12.9104 3.30508 11.2919 3.30508 9.47985C3.30508 6.16271 5.98793 3.47985 9.30508 3.47985ZM9.85586 6.23208C9.99739 6.20969 10.1642 6.23883 10.3464 6.32583C10.0867 6.44583 9.86867 6.55469 9.64325 6.64726C9.60125 6.6644 9.52029 6.62969 9.48086 6.59369C9.46286 6.5774 9.48691 6.49168 9.51434 6.45139C9.59748 6.32968 9.71432 6.25447 9.85586 6.23208Z" fill="white"/>
</g>
<defs>
<clipPath id="clip0_221_1340">
<rect width="18.55" height="18.55" fill="white" transform="translate(0.429901 0.129333)"/>
</clipPath>
</defs>
</svg>
