<svg width="20" height="20" viewBox="0 0 20 20" fill="none" xmlns="http://www.w3.org/2000/svg">
<path d="M5.33327 1.61731C4.05419 1.61731 2.99994 2.70168 2.99994 4.01731V15.2173C2.99994 16.5329 4.05419 17.6173 5.33327 17.6173H14.6666C15.9457 17.6173 16.9999 16.5329 16.9999 15.2173V4.01731C16.9999 2.70168 15.9457 1.61731 14.6666 1.61731H5.33327ZM5.33327 3.21731H6.88883V5.61731H13.1111V3.21731H14.6666C15.098 3.21731 15.4444 3.57356 15.4444 4.01731V8.81731H12.9895C12.6432 7.43918 11.4492 6.41731 9.99994 6.41731C8.55072 6.41731 7.35671 7.43918 7.01036 8.81731H4.55549V4.01731C4.55549 3.57356 4.90185 3.21731 5.33327 3.21731ZM8.44438 3.21731H11.5555V4.01731H8.44438V3.21731ZM9.99994 8.01731C10.6288 8.01731 11.1119 8.32668 11.3611 8.81731H8.63883C8.88796 8.32668 9.37103 8.01731 9.99994 8.01731ZM4.55549 10.4173H7.01036C7.35671 11.7954 8.55072 12.8173 9.99994 12.8173C11.4492 12.8173 12.6432 11.7954 12.9895 10.4173H15.4444V15.2173C15.4444 15.6611 15.098 16.0173 14.6666 16.0173H13.1111V13.6173H6.88883V16.0173H5.33327C4.90185 16.0173 4.55549 15.6611 4.55549 15.2173V10.4173ZM8.63883 10.4173H11.3611C11.1119 10.9079 10.6288 11.2173 9.99994 11.2173C9.37103 11.2173 8.88796 10.9079 8.63883 10.4173ZM8.44438 15.2173H11.5555V16.0173H8.44438V15.2173Z" fill="white"/>
</svg>
