<svg width="20" height="19" viewBox="0 0 20 19" fill="none" xmlns="http://www.w3.org/2000/svg">
<path d="M5.21953 1.14838C3.94045 1.14838 2.8862 2.23275 2.8862 3.54838V14.7484C2.8862 16.064 3.94045 17.1484 5.21953 17.1484H14.5529C15.8319 17.1484 16.8862 16.064 16.8862 14.7484V3.54838C16.8862 2.23275 15.8319 1.14838 14.5529 1.14838H5.21953ZM5.21953 2.74838H6.77509V5.14838H12.9973V2.74838H14.5529C14.9843 2.74838 15.3306 3.10463 15.3306 3.54838V8.34838H12.8758C12.5294 6.97025 11.3354 5.94838 9.8862 5.94838C8.43698 5.94838 7.24297 6.97025 6.89662 8.34838H4.44176V3.54838C4.44176 3.10463 4.78811 2.74838 5.21953 2.74838ZM8.33064 2.74838H11.4418V3.54838H8.33064V2.74838ZM9.8862 7.54838C10.5151 7.54838 10.9982 7.85775 11.2473 8.34838H8.52509C8.77422 7.85775 9.25729 7.54838 9.8862 7.54838ZM4.44176 9.94838H6.89662C7.24297 11.3265 8.43698 12.3484 9.8862 12.3484C11.3354 12.3484 12.5294 11.3265 12.8758 9.94838H15.3306V14.7484C15.3306 15.1921 14.9843 15.5484 14.5529 15.5484H12.9973V13.1484H6.77509V15.5484H5.21953C4.78811 15.5484 4.44176 15.1921 4.44176 14.7484V9.94838ZM8.52509 9.94838H11.2473C10.9982 10.439 10.5151 10.7484 9.8862 10.7484C9.25729 10.7484 8.77422 10.439 8.52509 9.94838ZM8.33064 14.7484H11.4418V15.5484H8.33064V14.7484Z" fill="white"/>
</svg>
