<svg width="20" height="20" viewBox="0 0 20 20" fill="none" xmlns="http://www.w3.org/2000/svg">
<g clip-path="url(#clip0_221_1749)">
<path d="M10.9999 0.894659C6.04994 0.894659 1.99994 4.94466 1.99994 9.89466C1.99994 14.8447 6.04994 18.8947 10.9999 18.8947C13.257 18.8947 15.3206 18.0579 16.9062 16.6728C17.089 16.5849 17.2402 16.4337 17.3281 16.2509C18.9663 14.6197 19.9999 12.3767 19.9999 9.89466C19.9999 4.94466 15.9499 0.894659 10.9999 0.894659ZM11.9281 2.75091C13.0706 2.90208 14.1394 3.3345 15.0499 3.96028C13.9531 4.92357 12.1812 6.90989 11.9562 9.86653C11.6503 9.8806 11.3304 9.89466 10.9999 9.89466C10.687 9.89466 10.3882 9.87708 10.0999 9.86653C10.1035 7.39153 10.5816 5.59153 11.0562 4.41028C11.5132 3.27474 11.8964 2.78958 11.9281 2.75091ZM9.81869 2.80716C9.68158 3.07435 9.53744 3.39075 9.39681 3.73528C8.85189 5.08177 8.32455 7.07161 8.29994 9.69778C7.9765 9.65208 7.65658 9.5888 7.37181 9.52903C7.23119 6.57591 6.59838 4.81107 6.41556 4.35403C7.3683 3.56653 8.54955 3.02161 9.81869 2.80716ZM16.3999 5.16966C17.1488 6.02747 17.6972 7.07161 17.9749 8.20716C17.8378 8.32669 17.5144 8.5763 16.6531 8.93841C15.9816 9.22317 15.0148 9.48333 13.7843 9.66966C14.0867 7.25794 15.63 5.78138 16.3999 5.16966ZM5.03744 5.90091C5.22728 6.58997 5.43822 7.57083 5.54369 8.99466C5.48392 8.97005 5.40306 8.96302 5.34681 8.93841C4.48549 8.5763 4.16205 8.32669 4.02494 8.20716C4.22885 7.37747 4.57338 6.59349 5.03744 5.90091ZM3.79994 10.204C4.04603 10.3411 4.32025 10.4607 4.64369 10.5978C4.91439 10.7103 5.24135 10.8298 5.57181 10.9353C5.53314 12.1376 5.30111 13.1923 5.06556 13.9447C4.3308 12.8689 3.8597 11.5857 3.79994 10.204ZM18.1999 10.204C18.1261 11.9513 17.4019 13.5474 16.2874 14.7603C15.5245 14.3525 14.1218 13.3575 13.8124 11.4978C15.3031 11.2939 16.4984 10.9599 17.3562 10.5978C17.6796 10.4607 17.9538 10.3411 18.1999 10.204ZM7.37181 11.3853C7.67767 11.4415 8.01517 11.4837 8.35619 11.5259C8.51791 13.449 8.95736 14.9677 9.39681 16.054C9.53744 16.3986 9.68158 16.715 9.81869 16.9822C8.56361 16.7712 7.39291 16.2368 6.44369 15.4634C6.74252 14.7357 7.25228 13.2486 7.37181 11.3853ZM10.1843 11.6665C10.448 11.6771 10.7187 11.6947 10.9999 11.6947C11.348 11.6947 11.689 11.6806 12.0124 11.6665C12.3359 13.8814 13.7597 15.2384 14.8531 15.9697C13.9882 16.5216 12.9863 16.8978 11.9281 17.0384C11.8964 16.9997 11.5132 16.5146 11.0562 15.379C10.7011 14.4966 10.3425 13.2661 10.1843 11.6665Z" fill="white"/>
</g>
<defs>
<clipPath id="clip0_221_1749">
<rect width="18.55" height="18.55" fill="white" transform="translate(0.83905 0.641302)"/>
</clipPath>
</defs>
</svg>
