<svg width="20" height="19" viewBox="0 0 20 19" fill="none" xmlns="http://www.w3.org/2000/svg">
<g clip-path="url(#clip0_221_1336)">
<path d="M4.07558 0.57428C3.01979 0.57428 2.17532 1.51846 2.30817 2.57237V2.57411C2.57291 4.6539 3.55492 6.16536 4.37737 7.37681C5.19982 8.58826 5.79095 9.47915 5.79095 10.3427C5.78929 10.4604 5.81103 10.5772 5.85491 10.6864C5.89879 10.7956 5.96394 10.895 6.04656 10.9788C6.12919 11.0626 6.22765 11.1292 6.33622 11.1746C6.44479 11.22 6.5613 11.2434 6.67899 11.2434C6.79668 11.2434 6.91319 11.22 7.02176 11.1746C7.13033 11.1292 7.22879 11.0626 7.31142 10.9788C7.39404 10.895 7.45919 10.7956 7.50307 10.6864C7.54696 10.5772 7.5687 10.4604 7.56703 10.3427C7.56703 10.3284 7.56371 10.3153 7.56356 10.3011C8.4325 12.2664 9.34311 13.0068 9.34311 13.0068H12.8953C12.8953 13.0068 13.8059 12.2664 14.6748 10.3011C14.6747 10.3153 14.6714 10.3284 14.6714 10.3427C14.6697 10.4604 14.6914 10.5772 14.7353 10.6864C14.7792 10.7956 14.8443 10.895 14.927 10.9788C15.0096 11.0626 15.1081 11.1292 15.2166 11.1746C15.3252 11.22 15.4417 11.2434 15.5594 11.2434C15.6771 11.2434 15.7936 11.22 15.9022 11.1746C16.0107 11.1292 16.1092 11.0626 16.1918 10.9788C16.2745 10.895 16.3396 10.7956 16.3835 10.6864C16.4274 10.5772 16.4491 10.4604 16.4474 10.3427C16.4474 9.47915 17.0386 8.58826 17.861 7.37681C18.6835 6.16536 19.6655 4.65389 19.9302 2.57411C20.065 1.51869 19.2186 0.57428 18.1628 0.57428H4.07558ZM18.168 2.34863C17.9585 3.99417 17.1959 5.19524 16.3919 6.3795C16.1059 6.80081 15.8172 7.22969 15.549 7.66993C15.8962 6.25164 16.1477 4.49575 16.2046 2.35036H18.1628C18.1727 2.35036 18.168 2.34863 18.168 2.34863ZM4.07037 2.35036C4.07001 2.34751 4.06571 2.35036 4.07558 2.35036H6.03377C6.09065 4.49575 6.3422 6.25164 6.6894 7.66993C6.42121 7.22969 6.13248 6.80082 5.84645 6.3795C5.04275 5.19567 4.28017 3.99498 4.07037 2.35036ZM7.56703 14.7829C7.07683 14.7829 6.67899 15.1808 6.67899 15.671C6.67899 16.1612 7.07683 16.559 7.56703 16.559H14.6714C15.1616 16.559 15.5594 16.1612 15.5594 15.671C15.5594 15.1808 15.1616 14.7829 14.6714 14.7829H7.56703Z" fill="white"/>
</g>
<defs>
<clipPath id="clip0_221_1336">
<rect width="18.55" height="18.55" fill="white" transform="translate(0.782166 0.129333)"/>
</clipPath>
</defs>
</svg>
