<svg width="25" height="25" viewBox="0 0 25 25" fill="none" xmlns="http://www.w3.org/2000/svg">
<path d="M12.1828 2.75134C6.6688 2.75134 2.1828 7.23734 2.1828 12.7513C2.1828 18.2653 6.6688 22.7513 12.1828 22.7513C17.6968 22.7513 22.1828 18.2653 22.1828 12.7513C22.1828 11.6253 21.9868 10.5455 21.6418 9.53455L20.0226 11.1537C20.1276 11.6697 20.1828 12.2043 20.1828 12.7513C20.1828 17.1623 16.5938 20.7513 12.1828 20.7513C7.7718 20.7513 4.1828 17.1623 4.1828 12.7513C4.1828 8.34034 7.7718 4.75134 12.1828 4.75134C13.8158 4.75134 15.3347 5.24523 16.6027 6.08923L18.0344 4.65759C16.3864 3.46359 14.3678 2.75134 12.1828 2.75134ZM21.4758 4.04431L11.1828 14.3373L7.88983 11.0443L6.47577 12.4584L11.1828 17.1654L22.8898 5.45837L21.4758 4.04431Z" fill="#00FA0A"/>
</svg>
