<svg width="88" height="87" viewBox="0 0 88 87" fill="none" xmlns="http://www.w3.org/2000/svg">
<path d="M41.3021 11.554C40.8055 11.554 40.4028 11.9566 40.4028 12.4532V17.8489C40.4028 18.3456 40.0002 18.7482 39.5036 18.7482H11.6259C7.65823 18.7482 4.43161 21.9748 4.43161 25.9424V69.1079C4.43161 73.0755 7.65823 76.3022 11.6259 76.3022H76.3741C80.3417 76.3022 83.5683 73.0755 83.5683 69.1079V25.9424C83.5683 21.9748 80.3417 18.7482 76.3741 18.7482H48.4964C47.9997 18.7482 47.5971 18.3456 47.5971 17.8489V12.4532C47.5971 11.9566 47.1945 11.554 46.6978 11.554H41.3021ZM11.6259 26.8417C11.6259 26.3451 12.0285 25.9424 12.5251 25.9424H75.4749C75.9715 25.9424 76.3741 26.345 76.3742 26.8416L76.3809 68.2085C76.381 68.7052 75.9784 69.1079 75.4817 69.1079H12.5251C12.0285 69.1079 11.6259 68.7053 11.6259 68.2086V26.8417ZM33.2086 33.1367C31.3006 33.1367 29.4707 33.8947 28.1215 35.2438C26.7723 36.593 26.0143 38.4229 26.0143 40.3309C26.0143 42.239 26.7723 44.0688 28.1215 45.418C29.4707 46.7672 31.3006 47.5252 33.2086 47.5252C35.1166 47.5252 36.9465 46.7672 38.2957 45.418C39.6449 44.0688 40.4028 42.239 40.4028 40.3309C40.4028 38.4229 39.6449 36.593 38.2957 35.2438C36.9465 33.8947 35.1166 33.1367 33.2086 33.1367ZM55.6906 36.7338C55.1939 36.7338 54.7913 37.1364 54.7913 37.6331V43.0288C54.7913 43.5254 55.1939 43.9281 55.6906 43.9281H68.2805C68.7772 43.9281 69.1798 43.5254 69.1798 43.0288V37.6331C69.1798 37.1364 68.7772 36.7338 68.2805 36.7338H55.6906ZM33.2086 51.1223C25.3489 51.1223 18.8201 54.3914 18.8201 59.0964V61.0144C18.8201 61.511 19.2227 61.9137 19.7194 61.9137H46.6978C47.1945 61.9137 47.5971 61.511 47.5971 61.0144V59.0964C47.5971 54.3914 41.0683 51.1223 33.2086 51.1223ZM55.6906 51.1223C55.1939 51.1223 54.7913 51.5249 54.7913 52.0216V57.4173C54.7913 57.9139 55.1939 58.3165 55.6906 58.3165H68.2805C68.7772 58.3165 69.1798 57.9139 69.1798 57.4173V52.0216C69.1798 51.5249 68.7772 51.1223 68.2805 51.1223H55.6906Z" fill="url(#paint0_linear_221_497)"/>
<defs>
<linearGradient id="paint0_linear_221_497" x1="81.7279" y1="4.77798" x2="32.78" y2="91.5667" gradientUnits="userSpaceOnUse">
<stop stop-color="#00FFBB"/>
<stop offset="1" stop-color="#00BF6F"/>
</linearGradient>
</defs>
</svg>
