<svg width="22" height="23" viewBox="0 0 22 23" fill="none" xmlns="http://www.w3.org/2000/svg">
<path d="M4.68461 3.95038C4.27237 3.95038 3.93779 4.28495 3.93779 4.6972V12.1654C3.93779 12.5777 4.27237 12.9122 4.68461 12.9122H18.1274C18.5396 12.9122 18.8742 12.5777 18.8742 12.1654V4.6972C18.8742 4.28495 18.5396 3.95038 18.1274 3.95038H4.68461ZM6.11261 5.44402H16.6994C16.7551 5.60108 16.8452 5.74373 16.963 5.86157C17.0809 5.97941 17.2235 6.06948 17.3806 6.1252V10.7374C17.2235 10.7931 17.0809 10.8832 16.963 11.001C16.8452 11.1189 16.7551 11.2615 16.6994 11.4186H6.11261C6.05689 11.2615 5.96683 11.1189 5.84898 11.001C5.73114 10.8832 5.58849 10.7931 5.43143 10.7374V6.1252C5.58849 6.06948 5.73114 5.97941 5.84898 5.86157C5.96683 5.74373 6.05689 5.60108 6.11261 5.44402ZM11.406 6.19084C10.8118 6.19084 10.2419 6.42689 9.82175 6.84706C9.40159 7.26723 9.16554 7.8371 9.16554 8.43131C9.16554 9.02551 9.40159 9.59538 9.82175 10.0156C10.2419 10.4357 10.8118 10.6718 11.406 10.6718C12.0002 10.6718 12.5701 10.4357 12.9902 10.0156C13.4104 9.59538 13.6465 9.02551 13.6465 8.43131C13.6465 7.8371 13.4104 7.26723 12.9902 6.84706C12.5701 6.42689 12.0002 6.19084 11.406 6.19084ZM7.6719 7.68448C7.25965 7.68448 6.92507 8.01831 6.92507 8.43131C6.92507 8.8443 7.25965 9.17813 7.6719 9.17813C8.08414 9.17813 8.41872 8.8443 8.41872 8.43131C8.41872 8.01831 8.08414 7.68448 7.6719 7.68448ZM15.1401 7.68448C14.7279 7.68448 14.3933 8.01831 14.3933 8.43131C14.3933 8.8443 14.7279 9.17813 15.1401 9.17813C15.5524 9.17813 15.8869 8.8443 15.8869 8.43131C15.8869 8.01831 15.5524 7.68448 15.1401 7.68448ZM10.6592 14.4059V15.8995H8.38225L11.3695 18.8868L14.3568 15.8995H12.1528V14.4059H10.6592Z" fill="#00BF6F"/>
</svg>
