<svg width="22" height="23" viewBox="0 0 22 23" fill="none" xmlns="http://www.w3.org/2000/svg">
<path d="M11.406 3.953C7.28131 3.953 3.93779 7.29652 3.93779 11.4212C3.93779 15.5459 7.28131 18.8894 11.406 18.8894C15.5307 18.8894 18.8742 15.5459 18.8742 11.4212C18.8742 7.29652 15.5307 3.953 11.406 3.953ZM11.406 6.00676C12.7465 6.00676 13.8332 7.09339 13.8332 8.43393C13.8332 9.77447 12.7465 10.8611 11.406 10.8611C10.0655 10.8611 8.97883 9.77447 8.97883 8.43393C8.97883 7.09339 10.0655 6.00676 11.406 6.00676ZM11.406 17.3958C9.33731 17.3958 7.51506 16.3443 6.44263 14.7468C7.27981 13.5295 9.94671 12.9149 11.406 12.9149C12.8653 12.9149 15.5322 13.5295 16.3694 14.7468C15.2969 16.3443 13.4747 17.3958 11.406 17.3958Z" fill="#00BF6F"/>
</svg>
