<svg width="22" height="23" viewBox="0 0 22 23" fill="none" xmlns="http://www.w3.org/2000/svg">
<path d="M9.77663 3.87677C8.98436 3.87677 8.22453 4.1915 7.66431 4.75173C7.10408 5.31195 6.78935 6.07178 6.78935 6.86405C6.78935 7.65633 7.10408 8.41616 7.66431 8.97638C8.22453 9.53661 8.98436 9.85134 9.77663 9.85134C10.5689 9.85134 11.3287 9.53661 11.889 8.97638C12.4492 8.41616 12.7639 7.65633 12.7639 6.86405C12.7639 6.07178 12.4492 5.31195 11.889 4.75173C11.3287 4.1915 10.5689 3.87677 9.77663 3.87677ZM14.2576 10.5982C11.7931 10.5982 9.77663 12.6146 9.77663 15.0791C9.77663 17.5436 11.7931 19.56 14.2576 19.56C16.7221 19.56 18.7385 17.5436 18.7385 15.0791C18.7385 12.6146 16.7221 10.5982 14.2576 10.5982ZM9.06774 12.1268C6.70778 12.3225 3.05524 13.4331 3.05524 15.4525V17.3195H8.72204C8.44124 16.6272 8.28299 15.8722 8.28299 15.0791C8.28299 14.0037 8.57035 12.9983 9.06774 12.1268ZM13.5107 12.8386H15.0044V14.3323H16.498V15.8259H15.0044V17.3195H13.5107V15.8259H12.0171V14.3323H13.5107V12.8386Z" fill="#00BF6F"/>
</svg>
