<svg width="22" height="23" viewBox="0 0 22 23" fill="none" xmlns="http://www.w3.org/2000/svg">
<path d="M9.91236 4.93402C8.94029 4.93402 8.11839 5.56042 7.80901 6.42766H3.93779V7.92131H7.80901C8.11839 8.78855 8.94029 9.41495 9.91236 9.41495C11.1476 9.41495 12.1528 8.40973 12.1528 7.17448C12.1528 5.93924 11.1476 4.93402 9.91236 4.93402ZM13.6465 6.42766V7.92131H18.8742V6.42766H13.6465ZM13.6465 10.1618C12.6744 10.1618 11.8525 10.7882 11.5431 11.6554H3.93779V13.1491H11.5431C11.8525 14.0163 12.6744 14.6427 13.6465 14.6427C14.8817 14.6427 15.8869 13.6375 15.8869 12.4022C15.8869 11.167 14.8817 10.1618 13.6465 10.1618ZM17.3806 11.6554V13.1491H18.8742V11.6554H17.3806ZM7.6719 15.3895C6.69983 15.3895 5.87793 16.0159 5.56854 16.8832H3.93779V18.3768H5.56854C5.87793 19.244 6.69983 19.8704 7.6719 19.8704C8.90714 19.8704 9.91236 18.8652 9.91236 17.63C9.91236 16.3947 8.90714 15.3895 7.6719 15.3895ZM11.406 16.8832V18.3768H18.8742V16.8832H11.406Z" fill="#00BF6F"/>
</svg>
