<svg width="22" height="23" viewBox="0 0 22 23" fill="none" xmlns="http://www.w3.org/2000/svg">
<path d="M8.41872 4.68842C7.59348 4.68842 6.92507 5.35682 6.92507 6.18206V11.4098C6.92507 12.235 7.59348 12.9034 8.41872 12.9034H10.6592V15.1439C10.6592 15.9602 11.3365 16.6376 12.1528 16.6376H17.3806C18.1969 16.6376 18.8742 15.9602 18.8742 15.1439V9.91616C18.8742 9.09984 18.1969 8.42252 17.3806 8.42252H15.1401V6.18206C15.1401 5.35682 14.4717 4.68842 13.6465 4.68842H8.41872ZM15.1401 9.91616H17.3806V15.1439H12.1528V12.9034H13.6465C14.4717 12.9034 15.1401 12.235 15.1401 11.4098V9.91616ZM3.93779 12.9034V15.8907C3.93779 16.7071 4.61511 17.3844 5.43143 17.3844H7.6719V18.878L9.91236 16.6376L7.6719 14.3971V15.8907H5.43143V12.9034H3.93779Z" fill="#00BF6F"/>
</svg>
