<svg width="22" height="23" viewBox="0 0 22 23" fill="none" xmlns="http://www.w3.org/2000/svg">
<path d="M10.5913 4.92838C7.27102 4.92838 4.27013 6.84314 4.63282 11.3245C4.62767 11.433 4.61678 11.5381 4.61678 11.6498C4.61678 11.7937 4.65248 11.974 4.66345 12.1326C4.23089 12.4561 3.86996 12.8949 3.86996 13.5168C3.86996 14.393 4.52339 15.0152 5.33588 15.2176C5.78066 16.374 6.40546 17.4621 7.23211 18.2982C8.14211 19.2187 9.29686 19.8648 10.5913 19.8648C10.9594 19.8648 11.4896 19.8049 11.9916 19.7481C12.4937 19.6913 12.9281 19.6343 12.9281 19.6343L12.7355 18.1538C12.7355 18.1538 12.3114 18.208 11.8239 18.2632C11.3364 18.3184 10.746 18.3712 10.5913 18.3712C9.79474 18.3712 9.00833 17.9705 8.294 17.248C7.57966 16.5255 6.97147 15.4953 6.59323 14.3949L6.41965 13.8902H5.73701C5.5752 13.8902 5.3636 13.6786 5.3636 13.5168C5.3636 13.3497 5.46236 13.2505 5.67429 13.1799L6.33067 12.9611L6.16293 12.2901C6.10956 12.0766 6.11042 11.9485 6.11042 11.6498C6.11042 11.3196 6.13674 11.0247 6.18189 10.7542C7.03679 10.0963 7.72489 10.6489 8.79868 8.9615C9.92348 11.0066 13.0425 9.7285 14.8987 10.2991C15.0105 10.6803 15.0723 11.1232 15.0723 11.6498V15.3839H15.5988C15.5589 15.5814 15.5177 15.745 15.4778 15.8769C15.4344 16.0201 15.4098 16.0533 15.3757 16.1307H12.0208C11.9436 15.9123 11.8006 15.7232 11.6115 15.5895C11.4223 15.4557 11.1964 15.3839 10.9648 15.3839C10.6677 15.3839 10.3827 15.5019 10.1726 15.712C9.96255 15.9221 9.84453 16.207 9.84453 16.5041C9.84453 16.8012 9.96255 17.0861 10.1726 17.2962C10.3827 17.5063 10.6677 17.6243 10.9648 17.6243C11.0323 17.6241 11.0997 17.6177 11.166 17.6054C11.2225 17.6183 11.2803 17.6247 11.3382 17.6243H15.8191C16.0038 17.6247 16.182 17.5566 16.3194 17.4333C16.3194 17.4333 16.4744 17.2727 16.579 17.0948C16.6837 16.917 16.7993 16.6663 16.9072 16.3101C16.9895 16.0385 17.0633 15.6815 17.1289 15.2716C17.6735 15.0481 18.0596 14.5128 18.0596 13.8902V12.3966C18.0596 11.5751 17.3874 10.9029 16.5659 10.9029H16.5615C16.6737 6.71831 13.8074 4.92838 10.5913 4.92838ZM8.72429 11.6498C8.42719 11.6498 8.14225 11.7678 7.93217 11.9779C7.72209 12.188 7.60406 12.4729 7.60406 12.77C7.60406 13.0671 7.72209 13.352 7.93217 13.5621C8.14225 13.7722 8.42719 13.8902 8.72429 13.8902C9.0214 13.8902 9.30633 13.7722 9.51642 13.5621C9.7265 13.352 9.84453 13.0671 9.84453 12.77C9.84453 12.4729 9.7265 12.188 9.51642 11.9779C9.30633 11.7678 9.0214 11.6498 8.72429 11.6498ZM12.4584 11.6498C12.1613 11.6498 11.8764 11.7678 11.6663 11.9779C11.4562 12.188 11.3382 12.4729 11.3382 12.77C11.3382 13.0671 11.4562 13.352 11.6663 13.5621C11.8764 13.7722 12.1613 13.8902 12.4584 13.8902C12.7555 13.8902 13.0404 13.7722 13.2505 13.5621C13.4606 13.352 13.5786 13.0671 13.5786 12.77C13.5786 12.4729 13.4606 12.188 13.2505 11.9779C13.0404 11.7678 12.7555 11.6498 12.4584 11.6498Z" fill="#00BF6F"/>
</svg>
