<svg width="22" height="23" viewBox="0 0 22 23" fill="none" xmlns="http://www.w3.org/2000/svg">
<path d="M8.81182 4.44235L7.93226 6.39838L5.79536 6.57925L6.23295 8.67677L4.60949 10.0785L6.19794 11.5196L5.7093 13.6084L7.84037 13.8403L8.67325 15.8182L10.5345 14.752L12.3694 15.8635L13.249 13.9074L15.3873 13.7266L14.9498 11.629L16.5732 10.2273L14.9848 8.78617L15.4734 6.6974L13.3409 6.46548L12.508 4.48757L10.6468 5.55383L8.81182 4.44235ZM14.3255 15.315L14.2511 15.3223L13.7318 16.4761L13.0404 18.015L11.5978 17.1412L10.514 16.4863L9.41715 17.115L7.95268 17.9522L7.29775 16.3973L6.85725 15.3515V20.6084L10.5914 18.7414L14.3255 20.6084V15.315Z" fill="#00BF6F"/>
</svg>
