<svg width="22" height="22" viewBox="0 0 22 22" fill="none" xmlns="http://www.w3.org/2000/svg">
<path d="M11.406 3.93909C7.28803 3.93909 3.93779 7.28933 3.93779 11.4073C3.93779 15.5253 7.28803 18.8755 11.406 18.8755C15.524 18.8755 18.8742 15.5253 18.8742 11.4073H17.3806C17.3806 14.7015 14.7002 17.3819 11.406 17.3819C8.11177 17.3819 5.43143 14.7015 5.43143 11.4073C5.43143 8.11307 8.11177 5.43273 11.406 5.43273C13.2435 5.43273 14.8824 6.27257 15.9788 7.5813L14.3933 9.16683H18.8742V4.68591L17.029 6.53108C15.6601 4.95153 13.6551 3.93909 11.406 3.93909ZM10.6592 6.92637V11.0981L8.63751 13.1197L9.69356 14.1758L12.1528 11.7165V6.92637H10.6592Z" fill="#00BF6F"/>
</svg>
