<svg width="22" height="23" viewBox="0 0 22 23" fill="none" xmlns="http://www.w3.org/2000/svg">
<path d="M9.91236 4.93658C8.68419 4.93658 7.6719 5.94888 7.6719 7.17705C7.6719 7.4396 7.72732 7.68757 7.81192 7.92387H5.43143C4.6146 7.92387 3.93779 8.60068 3.93779 9.41751V18.3794C3.93779 19.1962 4.6146 19.873 5.43143 19.873H17.3806C18.1974 19.873 18.8742 19.1962 18.8742 18.3794V9.41751C18.8742 8.60068 18.1974 7.92387 17.3806 7.92387H15.0001C15.0847 7.68757 15.1401 7.4396 15.1401 7.17705C15.1401 5.94888 14.1278 4.93658 12.8996 4.93658C12.3279 4.93658 11.8027 5.16121 11.406 5.52004C11.0093 5.16121 10.4841 4.93658 9.91236 4.93658ZM9.91236 6.43023C10.3324 6.43023 10.6592 6.75696 10.6592 7.17705C10.6592 7.59713 10.3324 7.92387 9.91236 7.92387C9.49227 7.92387 9.16554 7.59713 9.16554 7.17705C9.16554 6.75696 9.49227 6.43023 9.91236 6.43023ZM12.8996 6.43023C13.3197 6.43023 13.6465 6.75696 13.6465 7.17705C13.6465 7.59713 13.3197 7.92387 12.8996 7.92387C12.4796 7.92387 12.1528 7.59713 12.1528 7.17705C12.1528 6.75696 12.4796 6.43023 12.8996 6.43023ZM5.43143 9.41751H9.58562L7.88194 11.1212L8.95549 12.1948L11.406 9.74425L13.8565 12.1948L14.9301 11.1212L13.2264 9.41751H17.3806V13.8984H5.43143V9.41751ZM5.43143 16.1389H17.3806V18.3794H5.43143V16.1389Z" fill="#00BF6F"/>
</svg>
