<svg width="9" height="10" viewBox="0 0 9 10" fill="none" xmlns="http://www.w3.org/2000/svg">
<path fill-rule="evenodd" clip-rule="evenodd" d="M7.30308 6.14322C6.95118 6.28465 6.56687 6.36248 6.16438 6.36248C4.47709 6.36248 3.10928 4.99467 3.10928 3.30738C3.10928 2.90492 3.1871 2.52064 3.32851 2.16876C2.20519 2.62024 1.41211 3.7198 1.41211 5.0046C1.41211 6.69189 2.77993 8.0597 4.46721 8.0597C5.75204 8.0597 6.85163 7.26658 7.30308 6.14322Z" fill="white"/>
<path d="M7.30308 6.14322L7.61806 6.2698C7.66877 6.14361 7.63928 5.99934 7.54311 5.90318C7.44695 5.80702 7.30268 5.77753 7.17649 5.82825L7.30308 6.14322ZM3.32851 2.16876L3.64348 2.29534C3.69419 2.16916 3.6647 2.02489 3.56854 1.92873C3.47237 1.83257 3.3281 1.80308 3.20192 1.85379L3.32851 2.16876ZM7.17649 5.82825C6.86416 5.95378 6.52277 6.02303 6.16438 6.02303V6.70194C6.61097 6.70194 7.0382 6.61552 7.42968 6.45819L7.17649 5.82825ZM6.16438 6.02303C4.66457 6.02303 3.44873 4.80719 3.44873 3.30738H2.76982C2.76982 5.18214 4.28962 6.70194 6.16438 6.70194V6.02303ZM3.44873 3.30738C3.44873 2.94902 3.51797 2.60766 3.64348 2.29534L3.01354 2.04218C2.85622 2.43363 2.76982 2.86083 2.76982 3.30738H3.44873ZM1.75157 5.0046C1.75157 3.86309 2.45598 2.88529 3.4551 2.48373L3.20192 1.85379C1.95441 2.35519 1.07265 3.57651 1.07265 5.0046H1.75157ZM4.46721 7.72025C2.9674 7.72025 1.75157 6.50441 1.75157 5.0046H1.07265C1.07265 6.87936 2.59245 8.39916 4.46721 8.39916V7.72025ZM6.98811 6.01664C6.58657 7.0158 5.60875 7.72025 4.46721 7.72025V8.39916C5.89534 8.39916 7.11669 7.51736 7.61806 6.2698L6.98811 6.01664Z" fill="white"/>
</svg>
