<svg width="9" height="9" viewBox="0 0 9 9" fill="none" xmlns="http://www.w3.org/2000/svg">
<g clip-path="url(#clip0_221_809)">
<path fill-rule="evenodd" clip-rule="evenodd" d="M7.76366 5.73971C7.41175 5.88115 7.02744 5.95898 6.62495 5.95898C4.93766 5.95898 3.56985 4.59116 3.56985 2.90388C3.56985 2.50142 3.64767 2.11714 3.78908 1.76526C2.66576 2.21674 1.87268 3.3163 1.87268 4.6011C1.87268 6.28838 3.2405 7.6562 4.92778 7.6562C6.21261 7.6562 7.3122 6.86308 7.76366 5.73971Z" fill="white"/>
<path d="M7.76366 5.73971L8.07863 5.86629C8.12934 5.74011 8.09985 5.59584 8.00368 5.49968C7.90752 5.40352 7.76325 5.37403 7.63707 5.42475L7.76366 5.73971ZM3.78908 1.76526L4.10405 1.89184C4.15476 1.76565 4.12527 1.62138 4.02911 1.52522C3.93294 1.42906 3.78867 1.39958 3.66249 1.45029L3.78908 1.76526ZM7.63707 5.42475C7.32473 5.55028 6.98334 5.61952 6.62495 5.61952V6.29844C7.07154 6.29844 7.49878 6.21202 7.89025 6.05468L7.63707 5.42475ZM6.62495 5.61952C5.12514 5.61952 3.9093 4.40369 3.9093 2.90388H3.23039C3.23039 4.77864 4.75019 6.29844 6.62495 6.29844V5.61952ZM3.9093 2.90388C3.9093 2.54551 3.97854 2.20415 4.10405 1.89184L3.47411 1.63868C3.31679 2.03012 3.23039 2.45733 3.23039 2.90388H3.9093ZM2.21214 4.6011C2.21214 3.45959 2.91655 2.48179 3.91567 2.08023L3.66249 1.45029C2.41498 1.95168 1.53322 3.17301 1.53322 4.6011H2.21214ZM4.92778 7.31674C3.42797 7.31674 2.21214 6.10091 2.21214 4.6011H1.53322C1.53322 6.47586 3.05302 7.99566 4.92778 7.99566V7.31674ZM7.44868 5.61313C7.04714 6.61229 6.06932 7.31674 4.92778 7.31674V7.99566C6.35591 7.99566 7.57726 7.11386 8.07863 5.86629L7.44868 5.61313Z" fill="white"/>
</g>
<defs>
<clipPath id="clip0_221_809">
<rect width="8.14694" height="8.14694" fill="white" transform="translate(0.513062 0.252075)"/>
</clipPath>
</defs>
</svg>
