<svg width="9" height="10" viewBox="0 0 9 10" fill="none" xmlns="http://www.w3.org/2000/svg">
<g clip-path="url(#clip0_221_779)">
<path fill-rule="evenodd" clip-rule="evenodd" d="M1.90275 3.79433C2.25465 3.65291 2.63895 3.57508 3.04143 3.57508C4.72872 3.57508 6.09653 4.94289 6.09653 6.63018C6.09653 7.03266 6.01871 7.41696 5.87728 7.76886C7.00061 7.31739 7.7937 6.21782 7.7937 4.93301C7.7937 3.24573 6.42589 1.87791 4.7386 1.87791C3.45379 1.87791 2.35422 2.671 1.90275 3.79433Z" fill="white"/>
<path d="M1.90275 3.79433L1.58778 3.66775C1.53707 3.79393 1.56656 3.9382 1.66272 4.03437C1.75888 4.13053 1.90315 4.16002 2.02934 4.1093L1.90275 3.79433ZM5.87728 7.76886L5.56231 7.64227C5.51159 7.76846 5.54108 7.91273 5.63725 8.00889C5.73341 8.10505 5.87768 8.13454 6.00386 8.08383L5.87728 7.76886ZM2.02934 4.1093C2.34167 3.98378 2.68305 3.91453 3.04143 3.91453L3.04143 3.23562C2.59485 3.23562 2.16763 3.32203 1.77616 3.47936L2.02934 4.1093ZM3.04143 3.91453C4.54124 3.91453 5.75708 5.13037 5.75708 6.63018L6.43599 6.63018C6.43599 4.75542 4.91619 3.23562 3.04143 3.23562L3.04143 3.91453ZM5.75708 6.63018C5.75708 6.98856 5.68783 7.32994 5.56231 7.64227L6.19225 7.89545C6.34958 7.50398 6.43599 7.07676 6.43599 6.63018L5.75708 6.63018ZM7.45425 4.93301C7.45425 6.07453 6.74982 7.05233 5.75069 7.45389L6.00386 8.08383C7.25139 7.58244 8.13316 6.36111 8.13316 4.93301L7.45425 4.93301ZM4.7386 2.21737C6.23841 2.21737 7.45425 3.4332 7.45425 4.93301L8.13316 4.93301C8.13316 3.05825 6.61336 1.53845 4.7386 1.53845L4.7386 2.21737ZM2.21772 3.92092C2.61928 2.92179 3.59708 2.21736 4.7386 2.21737L4.7386 1.53845C3.3105 1.53845 2.08917 2.42022 1.58778 3.66775L2.21772 3.92092Z" fill="white"/>
</g>
<defs>
<clipPath id="clip0_221_779">
<rect width="8.14694" height="8.14694" fill="white" transform="translate(8.81165 9.00665) rotate(-180)"/>
</clipPath>
</defs>
</svg>
