<svg width="9" height="9" viewBox="0 0 9 9" fill="none" xmlns="http://www.w3.org/2000/svg">
<g clip-path="url(#clip0_221_799)">
<path fill-rule="evenodd" clip-rule="evenodd" d="M1.2411 3.23746C1.59301 3.09602 1.97732 3.01819 2.37981 3.01819C4.0671 3.01819 5.43491 4.38601 5.43491 6.0733C5.43491 6.47575 5.35709 6.86003 5.21568 7.21191C6.339 6.76044 7.13208 5.66087 7.13208 4.37608C7.13208 2.68879 5.76426 1.32097 4.07698 1.32097C2.79215 1.32097 1.69256 2.1141 1.2411 3.23746Z" fill="white"/>
<path d="M1.2411 3.23746L0.926132 3.11088C0.875421 3.23706 0.904914 3.38133 1.00108 3.47749C1.09724 3.57365 1.24151 3.60314 1.3677 3.55243L1.2411 3.23746ZM5.21568 7.21191L4.90071 7.08533C4.85 7.21152 4.87949 7.35579 4.97565 7.45195C5.07182 7.54811 5.21609 7.5776 5.34227 7.52688L5.21568 7.21191ZM1.3677 3.55243C1.68003 3.4269 2.02142 3.35765 2.37981 3.35765L2.37981 2.67874C1.93322 2.67874 1.50599 2.76515 1.11451 2.92249L1.3677 3.55243ZM2.37981 3.35765C3.87962 3.35765 5.09546 4.57349 5.09546 6.0733L5.77437 6.0733C5.77437 4.19853 4.25457 2.67874 2.37981 2.67874L2.37981 3.35765ZM5.09546 6.0733C5.09546 6.43166 5.02622 6.77302 4.90071 7.08533L5.53065 7.33849C5.68797 6.94705 5.77437 6.51985 5.77437 6.0733L5.09546 6.0733ZM6.79262 4.37608C6.79262 5.51758 6.08821 6.49538 5.08909 6.89695L5.34227 7.52688C6.58978 7.02549 7.47154 5.80416 7.47154 4.37608L6.79262 4.37608ZM4.07698 1.66043C5.57679 1.66043 6.79262 2.87627 6.79262 4.37608L7.47154 4.37608C7.47154 2.50131 5.95174 0.981517 4.07698 0.981517L4.07698 1.66043ZM1.55608 3.36404C1.95762 2.36488 2.93544 1.66043 4.07698 1.66043L4.07698 0.981517C2.64885 0.981517 1.4275 1.86332 0.926132 3.11088L1.55608 3.36404Z" fill="white"/>
</g>
<defs>
<clipPath id="clip0_221_799">
<rect width="8.14694" height="8.14694" fill="white" transform="translate(8.15002 8.44977) rotate(-180)"/>
</clipPath>
</defs>
</svg>
