<svg width="9" height="9" viewBox="0 0 9 9" fill="none" xmlns="http://www.w3.org/2000/svg">
<path fill-rule="evenodd" clip-rule="evenodd" d="M7.58101 5.54691C7.22912 5.68834 6.84482 5.76617 6.44233 5.76617C4.75505 5.76617 3.38723 4.39835 3.38723 2.71107C3.38723 2.30859 3.46506 1.92428 3.60649 1.57239C2.48316 2.02386 1.69006 3.12343 1.69006 4.40823C1.69006 6.09552 3.05788 7.46334 4.74517 7.46334C6.02997 7.46334 7.12954 6.67024 7.58101 5.54691Z" fill="white"/>
<path d="M7.58101 5.54691L7.89598 5.6735C7.9467 5.54732 7.91721 5.40305 7.82105 5.30688C7.72488 5.21072 7.58061 5.18123 7.45443 5.23194L7.58101 5.54691ZM3.60649 1.57239L3.92146 1.69898C3.97217 1.57279 3.94268 1.42852 3.84652 1.33236C3.75036 1.23619 3.60608 1.2067 3.4799 1.25742L3.60649 1.57239ZM7.45443 5.23194C7.1421 5.35747 6.80072 5.42672 6.44233 5.42672V6.10563C6.88891 6.10563 7.31614 6.01921 7.7076 5.86188L7.45443 5.23194ZM6.44233 5.42672C4.94252 5.42672 3.72669 4.21088 3.72669 2.71107H3.04777C3.04777 4.58583 4.56757 6.10563 6.44233 6.10563V5.42672ZM3.72669 2.71107C3.72669 2.35268 3.79593 2.0113 3.92146 1.69898L3.29152 1.4458C3.13419 1.83726 3.04777 2.26449 3.04777 2.71107H3.72669ZM2.02952 4.40823C2.02952 3.26672 2.73394 2.28891 3.73308 1.88736L3.4799 1.25742C2.23237 1.7588 1.35061 2.98014 1.35061 4.40823H2.02952ZM4.74517 7.12388C3.24536 7.12388 2.02952 5.90805 2.02952 4.40823H1.35061C1.35061 6.283 2.8704 7.80279 4.74517 7.80279V7.12388ZM7.26604 5.42033C6.86449 6.41946 5.88668 7.12388 4.74517 7.12388V7.80279C6.17327 7.80279 7.3946 6.92103 7.89598 5.6735L7.26604 5.42033Z" fill="white"/>
</svg>
