<svg width="20" height="20" viewBox="0 0 20 20" fill="none" xmlns="http://www.w3.org/2000/svg">
<g clip-path="url(#clip0_221_1791)">
<path d="M8.7215 1.65131C8.25273 1.65131 7.80316 1.83752 7.47169 2.16899C7.14022 2.50047 6.954 2.95004 6.954 3.41881C6.954 3.88758 7.14022 4.33715 7.47169 4.66862C7.80316 5.00009 8.25273 5.18631 8.7215 5.18631C9.19027 5.18631 9.63984 5.00009 9.97131 4.66862C10.3028 4.33715 10.489 3.88758 10.489 3.41881C10.489 2.95004 10.3028 2.50047 9.97131 2.16899C9.63984 1.83752 9.19027 1.65131 8.7215 1.65131ZM16.5078 4.31119C16.3435 4.29628 16.176 4.29839 16.0073 4.31636C15.3323 4.38827 14.6421 4.71665 14.0982 5.26053C13.1311 6.22765 12.8481 7.65141 13.4803 8.64018L12.2565 9.86397V9.60506H9.80375L8.80953 7.7409C8.80953 7.7409 8.78476 7.69477 8.78191 7.68911L8.60931 7.36634L8.60758 7.36806C8.55587 7.27153 8.53479 7.2225 8.49021 7.15058C8.0934 6.50279 7.38218 6.07006 6.56736 6.07006C5.81706 6.07006 5.14404 6.42862 4.74635 7.00041C4.0968 7.93718 2.74155 9.6678 2.55596 10.7097C2.54271 10.7875 2.53525 10.8609 2.53525 10.9307C2.53525 11.1366 2.69669 11.8933 2.76827 12.1717C2.99363 13.044 3.29809 14.1548 3.4121 14.5675L0.892029 17.2378L2.18831 18.4374L4.95003 15.5082C5.10203 15.3447 5.1865 15.1303 5.1865 14.9076V12.208C5.1865 11.9941 5.26347 11.7871 5.40399 11.6263L7.5633 9.16318L8.49366 10.9048C8.56909 11.0462 8.68153 11.1644 8.81895 11.2468C8.95638 11.3291 9.11361 11.3726 9.27384 11.3726H12.2565V11.1136L14.1051 9.26502C15.0939 9.89723 16.5177 9.61421 17.4848 8.64709C18.5722 7.55965 18.8011 5.89016 17.8283 4.91704C17.4632 4.55193 17.0008 4.35592 16.5078 4.31119ZM16.3922 5.19321C16.7111 5.21723 16.9965 5.33498 17.2034 5.54188H17.2052C17.7564 6.09249 17.6775 7.20473 16.8599 8.02225C16.0423 8.83986 14.9313 8.91745 14.3796 8.36574C13.8278 7.81402 13.9054 6.70298 14.7231 5.88537C15.1319 5.47656 15.6152 5.25304 16.0642 5.20011C16.1765 5.18688 16.2859 5.1852 16.3922 5.19321ZM17.559 11.3726C17.3246 11.3726 17.0998 11.4657 16.9341 11.6314C16.7684 11.7971 16.6752 12.0219 16.6752 12.2563C16.6752 12.4907 16.7684 12.7155 16.9341 12.8812C17.0998 13.0469 17.3246 13.1401 17.559 13.1401C17.7934 13.1401 18.0182 13.0469 18.1839 12.8812C18.3496 12.7155 18.4427 12.4907 18.4427 12.2563C18.4427 12.0219 18.3496 11.7971 18.1839 11.6314C18.0182 11.4657 17.7934 11.3726 17.559 11.3726ZM6.21869 12.0388L6.07025 12.208V14.3897L7.04548 15.365L7.86709 18.396L9.57591 17.9403L8.69216 14.6797C8.6515 14.5295 8.57306 14.3923 8.46259 14.2827L6.21869 12.0388Z" fill="white"/>
</g>
<defs>
<clipPath id="clip0_221_1791">
<rect width="18.55" height="18.55" fill="white" transform="translate(0.83905 0.937927)"/>
</clipPath>
</defs>
</svg>
