<svg width="20" height="19" viewBox="0 0 20 19" fill="none" xmlns="http://www.w3.org/2000/svg">
<g clip-path="url(#clip0_221_1737)">
<path d="M8.7212 0.545959C8.25243 0.545959 7.80286 0.732178 7.47138 1.06365C7.13991 1.39512 6.9537 1.84469 6.9537 2.31346C6.9537 2.78223 7.13991 3.2318 7.47138 3.56327C7.80286 3.89474 8.25243 4.08096 8.7212 4.08096C9.18997 4.08096 9.63954 3.89474 9.97101 3.56327C10.3025 3.2318 10.4887 2.78223 10.4887 2.31346C10.4887 1.84469 10.3025 1.39512 9.97101 1.06365C9.63954 0.732178 9.18997 0.545959 8.7212 0.545959ZM16.5075 3.20584C16.3432 3.19093 16.1757 3.19304 16.007 3.21102C15.332 3.28292 14.6418 3.61131 14.0979 4.15518C13.1308 5.12231 12.8478 6.54607 13.48 7.53483L12.2562 8.75862V8.49971H9.80344L8.80923 6.63555C8.80923 6.63555 8.78445 6.58942 8.78161 6.58377L8.609 6.26099L8.60727 6.26272C8.55556 6.16618 8.53448 6.11715 8.4899 6.04523C8.0931 5.39744 7.38187 4.96471 6.56706 4.96471C5.81675 4.96471 5.14373 5.32328 4.74605 5.89506C4.09649 6.83184 2.74125 8.56246 2.55566 9.6044C2.5424 9.68217 2.53495 9.75552 2.53495 9.82533C2.53495 10.0312 2.69638 10.788 2.76797 11.0664C2.99332 11.9386 3.29779 13.0495 3.41179 13.4622L0.891724 16.1324L2.18801 17.332L4.94972 14.4029C5.10173 14.2394 5.1862 14.0249 5.1862 13.8022V11.1026C5.1862 10.8888 5.26316 10.6818 5.40368 10.5209L7.563 8.05783L8.49335 9.79944C8.56878 9.94081 8.68122 10.059 8.81865 10.1414C8.95607 10.2238 9.11331 10.2673 9.27354 10.2672H12.2562V10.0083L14.1048 8.15967C15.0936 8.79188 16.5173 8.50886 17.4845 7.54174C18.5719 6.4543 18.8008 4.78482 17.828 3.81169C17.4628 3.44658 17.0005 3.25057 16.5075 3.20584ZM16.3919 4.08786C16.7108 4.11189 16.9962 4.22964 17.2031 4.43653H17.2048C17.7561 4.98715 17.6772 6.09938 16.8596 6.9169C16.042 7.73452 14.931 7.81211 14.3793 7.26039C13.8275 6.70867 13.9051 5.59763 14.7228 4.78002C15.1316 4.37121 15.6149 4.1477 16.0639 4.09477C16.1762 4.08154 16.2856 4.07986 16.3919 4.08786ZM17.5587 10.2672C17.3243 10.2672 17.0995 10.3603 16.9338 10.5261C16.7681 10.6918 16.6749 10.9166 16.6749 11.151C16.6749 11.3853 16.7681 11.6101 16.9338 11.7759C17.0995 11.9416 17.3243 12.0347 17.5587 12.0347C17.7931 12.0347 18.0179 11.9416 18.1836 11.7759C18.3493 11.6101 18.4424 11.3853 18.4424 11.151C18.4424 10.9166 18.3493 10.6918 18.1836 10.5261C18.0179 10.3603 17.7931 10.2672 17.5587 10.2672ZM6.21839 10.9335L6.06995 11.1026V13.2844L7.04518 14.2596L7.86679 17.2906L9.5756 16.8349L8.69185 13.5744C8.6512 13.4241 8.57275 13.287 8.46228 13.1774L6.21839 10.9335Z" fill="white"/>
</g>
<defs>
<clipPath id="clip0_221_1737">
<rect width="18.55" height="18.55" fill="white" transform="translate(0.83905 0.215454)"/>
</clipPath>
</defs>
</svg>
