<svg width="19" height="19" viewBox="0 0 19 19" fill="none" xmlns="http://www.w3.org/2000/svg">
<g clip-path="url(#clip0_221_1520)">
<path d="M2.4279 1.38287C1.37212 1.38287 0.527646 2.32705 0.660492 3.38096V3.3827C0.925237 5.46249 1.90724 6.97395 2.7297 8.1854C3.55215 9.39685 4.14328 10.2877 4.14328 11.1513C4.14161 11.269 4.16335 11.3858 4.20723 11.495C4.25111 11.6042 4.31626 11.7036 4.39889 11.7874C4.48152 11.8712 4.57998 11.9378 4.68855 11.9832C4.79711 12.0286 4.91363 12.052 5.03132 12.052C5.149 12.052 5.26552 12.0286 5.37409 11.9832C5.48266 11.9378 5.58112 11.8712 5.66374 11.7874C5.74637 11.7036 5.81152 11.6042 5.8554 11.495C5.89928 11.3858 5.92102 11.269 5.91936 11.1513C5.91936 11.137 5.91604 11.1239 5.91589 11.1097C6.78482 13.075 7.69544 13.8154 7.69544 13.8154H11.2476C11.2476 13.8154 12.1582 13.075 13.0271 11.1097C13.027 11.1239 13.0237 11.137 13.0237 11.1513C13.022 11.269 13.0438 11.3858 13.0876 11.495C13.1315 11.6042 13.1967 11.7036 13.2793 11.7874C13.3619 11.8712 13.4604 11.9378 13.5689 11.9832C13.6775 12.0286 13.794 12.052 13.9117 12.052C14.0294 12.052 14.1459 12.0286 14.2545 11.9832C14.3631 11.9378 14.4615 11.8712 14.5441 11.7874C14.6268 11.7036 14.6919 11.6042 14.7358 11.495C14.7797 11.3858 14.8014 11.269 14.7998 11.1513C14.7998 10.2877 15.3909 9.39685 16.2133 8.1854C17.0358 6.97395 18.0178 5.46249 18.2825 3.3827C18.4174 2.32728 17.5709 1.38287 16.5151 1.38287H2.4279ZM16.5203 3.15722C16.3109 4.80276 15.5483 6.00383 14.7443 7.18809C14.4582 7.60941 14.1695 8.03829 13.9013 8.47853C14.2485 7.06023 14.5001 5.30434 14.5569 3.15895H16.5151C16.525 3.15895 16.5203 3.15722 16.5203 3.15722ZM2.4227 3.15895C2.42234 3.1561 2.41803 3.15895 2.4279 3.15895H4.3861C4.44298 5.30434 4.69452 7.06023 5.04172 8.47853C4.77353 8.03829 4.48481 7.60941 4.19878 7.18809C3.39508 6.00426 2.63249 4.80358 2.4227 3.15895ZM5.91936 15.5915C5.42916 15.5915 5.03132 15.9894 5.03132 16.4796C5.03132 16.9698 5.42916 17.3676 5.91936 17.3676H13.0237C13.5139 17.3676 13.9117 16.9698 13.9117 16.4796C13.9117 15.9894 13.5139 15.5915 13.0237 15.5915H5.91936Z" fill="white"/>
</g>
<defs>
<clipPath id="clip0_221_1520">
<rect width="18.55" height="18.55" fill="white" transform="translate(0.134491 0.129333)"/>
</clipPath>
</defs>
</svg>
