<svg width="20" height="19" viewBox="0 0 20 19" fill="none" xmlns="http://www.w3.org/2000/svg">
<g clip-path="url(#clip0_221_1764)">
<path d="M3.13246 1.61737C2.07668 1.61737 1.2322 2.56155 1.36505 3.61546V3.6172C1.6298 5.69699 2.6118 7.20845 3.43425 8.4199C4.25671 9.63135 4.84784 10.5222 4.84784 11.3858C4.84617 11.5035 4.86791 11.6203 4.91179 11.7295C4.95567 11.8387 5.02082 11.9381 5.10345 12.0219C5.18608 12.1057 5.28454 12.1723 5.3931 12.2177C5.50167 12.2631 5.61819 12.2865 5.73588 12.2865C5.85356 12.2865 5.97008 12.2631 6.07865 12.2177C6.18722 12.1723 6.28568 12.1057 6.3683 12.0219C6.45093 11.9381 6.51608 11.8387 6.55996 11.7295C6.60384 11.6203 6.62558 11.5035 6.62392 11.3858C6.62392 11.3715 6.62059 11.3584 6.62045 11.3442C7.48938 13.3095 8.4 14.0499 8.4 14.0499H11.9522C11.9522 14.0499 12.8628 13.3095 13.7317 11.3442C13.7316 11.3584 13.7282 11.3715 13.7282 11.3858C13.7266 11.5035 13.7483 11.6203 13.7922 11.7295C13.8361 11.8387 13.9012 11.9381 13.9839 12.0219C14.0665 12.1057 14.1649 12.1723 14.2735 12.2177C14.3821 12.2631 14.4986 12.2865 14.6163 12.2865C14.734 12.2865 14.8505 12.2631 14.9591 12.2177C15.0676 12.1723 15.1661 12.1057 15.2487 12.0219C15.3313 11.9381 15.3965 11.8387 15.4404 11.7295C15.4842 11.6203 15.506 11.5035 15.5043 11.3858C15.5043 10.5222 16.0954 9.63135 16.9179 8.4199C17.7404 7.20845 18.7224 5.69699 18.9871 3.6172C19.1219 2.56178 18.2755 1.61737 17.2197 1.61737H3.13246ZM17.2249 3.39172C17.0154 5.03726 16.2528 6.23833 15.4488 7.42259C15.1628 7.84391 14.8741 8.27278 14.6059 8.71302C14.9531 7.29473 15.2046 5.53884 15.2615 3.39345H17.2197C17.2296 3.39345 17.2249 3.39172 17.2249 3.39172ZM3.12726 3.39345C3.1269 3.3906 3.12259 3.39345 3.13246 3.39345H5.09066C5.14754 5.53884 5.39908 7.29473 5.74628 8.71302C5.47809 8.27278 5.18937 7.84391 4.90334 7.42259C4.09963 6.23876 3.33705 5.03807 3.12726 3.39345ZM6.62392 15.826C6.13372 15.826 5.73588 16.2239 5.73588 16.7141C5.73588 17.2043 6.13372 17.6021 6.62392 17.6021H13.7282C14.2184 17.6021 14.6163 17.2043 14.6163 16.7141C14.6163 16.2239 14.2184 15.826 13.7282 15.826H6.62392Z" fill="white"/>
</g>
<defs>
<clipPath id="clip0_221_1764">
<rect width="18.55" height="18.55" fill="white" transform="translate(0.83905 0.363831)"/>
</clipPath>
</defs>
</svg>
