<svg width="19" height="19" viewBox="0 0 19 19" fill="none" xmlns="http://www.w3.org/2000/svg">
<g clip-path="url(#clip0_221_1332)">
<path d="M2.42787 1.38287C1.37209 1.38287 0.527615 2.32705 0.660461 3.38096V3.3827C0.925207 5.46249 1.90721 6.97395 2.72967 8.1854C3.55212 9.39685 4.14325 10.2877 4.14325 11.1513C4.14158 11.269 4.16332 11.3858 4.2072 11.495C4.25108 11.6042 4.31623 11.7036 4.39886 11.7874C4.48149 11.8712 4.57995 11.9378 4.68851 11.9832C4.79708 12.0286 4.9136 12.052 5.03129 12.052C5.14897 12.052 5.26549 12.0286 5.37406 11.9832C5.48263 11.9378 5.58109 11.8712 5.66371 11.7874C5.74634 11.7036 5.81149 11.6042 5.85537 11.495C5.89925 11.3858 5.92099 11.269 5.91933 11.1513C5.91933 11.137 5.916 11.1239 5.91586 11.1097C6.78479 13.075 7.69541 13.8154 7.69541 13.8154H11.2476C11.2476 13.8154 12.1582 13.075 13.0271 11.1097C13.027 11.1239 13.0237 11.137 13.0237 11.1513C13.022 11.269 13.0437 11.3858 13.0876 11.495C13.1315 11.6042 13.1966 11.7036 13.2793 11.7874C13.3619 11.8712 13.4604 11.9378 13.5689 11.9832C13.6775 12.0286 13.794 12.052 13.9117 12.052C14.0294 12.052 14.1459 12.0286 14.2545 11.9832C14.363 11.9378 14.4615 11.8712 14.5441 11.7874C14.6267 11.7036 14.6919 11.6042 14.7358 11.495C14.7797 11.3858 14.8014 11.269 14.7997 11.1513C14.7997 10.2877 15.3909 9.39685 16.2133 8.1854C17.0358 6.97395 18.0178 5.46249 18.2825 3.3827C18.4173 2.32728 17.5709 1.38287 16.5151 1.38287H2.42787ZM16.5203 3.15722C16.3108 4.80276 15.5482 6.00383 14.7442 7.18809C14.4582 7.60941 14.1695 8.03829 13.9013 8.47853C14.2485 7.06023 14.5 5.30434 14.5569 3.15895H16.5151C16.525 3.15895 16.5203 3.15722 16.5203 3.15722ZM2.42267 3.15895C2.42231 3.1561 2.418 3.15895 2.42787 3.15895H4.38607C4.44295 5.30434 4.69449 7.06023 5.04169 8.47853C4.7735 8.03829 4.48478 7.60941 4.19875 7.18809C3.39504 6.00426 2.63246 4.80358 2.42267 3.15895ZM5.91933 15.5915C5.42913 15.5915 5.03129 15.9894 5.03129 16.4796C5.03129 16.9698 5.42913 17.3676 5.91933 17.3676H13.0237C13.5138 17.3676 13.9117 16.9698 13.9117 16.4796C13.9117 15.9894 13.5138 15.5915 13.0237 15.5915H5.91933Z" fill="white"/>
</g>
<defs>
<clipPath id="clip0_221_1332">
<rect width="18.55" height="18.55" fill="white" transform="translate(0.13446 0.129333)"/>
</clipPath>
</defs>
</svg>
