<svg width="20" height="19" viewBox="0 0 20 19" fill="none" xmlns="http://www.w3.org/2000/svg">
<g clip-path="url(#clip0_221_1324)">
<path d="M3.13246 2.00006C2.07668 2.00006 1.2322 2.94424 1.36505 3.99815V3.99989C1.6298 6.07968 2.6118 7.59114 3.43425 8.80259C4.25671 10.014 4.84784 10.9049 4.84784 11.7685C4.84617 11.8862 4.86791 12.003 4.91179 12.1122C4.95567 12.2214 5.02082 12.3208 5.10345 12.4046C5.18608 12.4884 5.28454 12.555 5.3931 12.6004C5.50167 12.6458 5.61819 12.6692 5.73588 12.6692C5.85356 12.6692 5.97008 12.6458 6.07865 12.6004C6.18722 12.555 6.28568 12.4884 6.3683 12.4046C6.45093 12.3208 6.51608 12.2214 6.55996 12.1122C6.60384 12.003 6.62558 11.8862 6.62392 11.7685C6.62392 11.7542 6.62059 11.7411 6.62045 11.7269C7.48938 13.6921 8.4 14.4326 8.4 14.4326H11.9522C11.9522 14.4326 12.8628 13.6921 13.7317 11.7269C13.7316 11.7411 13.7282 11.7542 13.7282 11.7685C13.7266 11.8862 13.7483 12.003 13.7922 12.1122C13.8361 12.2214 13.9012 12.3208 13.9839 12.4046C14.0665 12.4884 14.1649 12.555 14.2735 12.6004C14.3821 12.6458 14.4986 12.6692 14.6163 12.6692C14.734 12.6692 14.8505 12.6458 14.9591 12.6004C15.0676 12.555 15.1661 12.4884 15.2487 12.4046C15.3313 12.3208 15.3965 12.2214 15.4404 12.1122C15.4842 12.003 15.506 11.8862 15.5043 11.7685C15.5043 10.9049 16.0954 10.014 16.9179 8.80259C17.7404 7.59114 18.7224 6.07968 18.9871 3.99989C19.1219 2.94447 18.2755 2.00006 17.2197 2.00006H3.13246ZM17.2249 3.77441C17.0154 5.41995 16.2528 6.62102 15.4488 7.80528C15.1628 8.2266 14.8741 8.65547 14.6059 9.09571C14.9531 7.67742 15.2046 5.92153 15.2615 3.77614H17.2197C17.2296 3.77614 17.2249 3.77441 17.2249 3.77441ZM3.12726 3.77614C3.1269 3.77329 3.12259 3.77614 3.13246 3.77614H5.09066C5.14754 5.92153 5.39908 7.67742 5.74628 9.09571C5.47809 8.65547 5.18937 8.2266 4.90334 7.80528C4.09963 6.62145 3.33705 5.42076 3.12726 3.77614ZM6.62392 16.2087C6.13372 16.2087 5.73588 16.6066 5.73588 17.0968C5.73588 17.5869 6.13372 17.9848 6.62392 17.9848H13.7282C14.2184 17.9848 14.6163 17.5869 14.6163 17.0968C14.6163 16.6066 14.2184 16.2087 13.7282 16.2087H6.62392Z" fill="white"/>
</g>
<defs>
<clipPath id="clip0_221_1324">
<rect width="18.55" height="18.55" fill="white" transform="translate(0.83905 0.129333)"/>
</clipPath>
</defs>
</svg>
