<svg width="13" height="13" viewBox="0 0 13 13" fill="none" xmlns="http://www.w3.org/2000/svg">
<g clip-path="url(#clip0_221_1046)">
<path d="M6.35858 2.38412C3.62151 2.38412 1.38208 4.62355 1.38208 7.36063C1.38208 10.0977 3.62151 12.3371 6.35858 12.3371C9.09566 12.3371 11.3351 10.0977 11.3351 7.36063C11.3351 4.62355 9.09566 2.38412 6.35858 2.38412ZM6.35858 3.37943C6.87425 3.37943 7.36615 3.48175 7.81946 3.66227L6.35858 4.27559L4.89771 3.66227C5.35102 3.48175 5.84292 3.37943 6.35858 3.37943ZM3.32408 4.79268L3.42225 6.4149L2.38904 7.59002C2.38462 7.51362 2.37738 7.43808 2.37738 7.36063C2.37738 6.38394 2.73486 5.48729 3.32408 4.79268ZM9.39309 4.79268C9.98231 5.48729 10.3398 6.38394 10.3398 7.36063C10.3398 7.43808 10.3325 7.51362 10.3281 7.59002L9.29492 6.4149L9.39309 4.79268ZM6.35858 5.58386L8.22866 6.93976L7.48121 9.1374H5.23596L4.48851 6.93976L6.35858 5.58386ZM2.98875 9.46592L4.56724 9.84888L5.36523 11.2106C4.36927 10.952 3.52371 10.317 2.98875 9.46592ZM9.72842 9.46592C9.19346 10.317 8.3479 10.952 7.35194 11.2106L8.14993 9.84888L9.72842 9.46592Z" fill="white"/>
</g>
<defs>
<clipPath id="clip0_221_1046">
<rect width="11.9446" height="11.9446" fill="white" transform="translate(0.639038 0.974335)"/>
</clipPath>
</defs>
</svg>
