<svg width="22" height="22" viewBox="0 0 22 22" fill="none" xmlns="http://www.w3.org/2000/svg">
<g clip-path="url(#clip0_221_190)">
<path d="M15.4044 2.76752C12.5771 2.76752 8.86604 3.91708 6.12503 6.74439C1.79604 11.0734 1.34036 17.6187 3.19761 19.4759C3.81555 20.0938 5.05832 20.4425 6.64976 20.4425C9.39076 20.4425 13.1018 19.293 15.9291 16.4656C20.2581 12.1366 20.7138 5.59137 18.8566 3.73412C18.1489 3.11618 16.9061 2.76752 15.4044 2.76752ZM15.4044 4.53502C15.9084 4.53502 16.302 4.60406 16.6472 4.6731L15.2111 6.1092L16.4815 7.37959L17.9728 5.88826C18.3871 7.76968 17.8416 12.078 14.6864 15.3057C12.1249 17.7809 8.85913 18.675 6.64976 18.675C6.10777 18.675 5.68316 18.6163 5.32413 18.5369L6.76023 17.1008L5.48984 15.8304L4.08136 17.2389C3.93637 16.5796 3.87423 15.6095 4.08136 14.2563C4.34718 12.8409 5.06868 10.2034 7.36781 7.90431C9.9293 5.42912 13.195 4.53502 15.4044 4.53502ZM14.3273 6.99295L12.9465 8.37381C12.5219 7.84908 12.4218 7.54529 12.2284 7.35197C11.9626 7.08615 11.5276 7.08615 11.2618 7.35197L11.1514 7.46244C10.8855 7.72825 10.8855 8.16323 11.1514 8.42904C11.355 8.63272 11.5932 8.59129 12.2008 9.11947L10.7371 10.5832C10.3125 10.0585 10.2124 9.75467 10.0191 9.56134C9.75324 9.29553 9.31827 9.29553 9.05245 9.56134L8.94199 9.67181C8.67617 9.93763 8.67617 10.3726 8.94199 10.6384C9.14566 10.8421 9.38386 10.8007 9.99144 11.3288L8.52773 12.7926C8.10311 12.2678 8.003 11.964 7.80968 11.7707C7.54387 11.5049 7.10889 11.5049 6.84308 11.7707L6.73261 11.8812C6.46679 12.147 6.46679 12.582 6.73261 12.8478C6.93629 13.0515 7.17449 13.01 7.78206 13.5382L6.37359 14.9467L7.64398 16.2171L8.99722 14.8638C9.48742 15.4887 9.47016 15.6544 9.74288 15.8581C10.095 16.1239 10.4437 16.1239 10.7095 15.8581L10.82 15.7476C11.0858 15.4818 11.0858 15.0468 10.82 14.781C10.6266 14.5877 10.3228 14.4876 9.79812 14.0629L11.2066 12.6545C11.6968 13.2793 11.6795 13.445 11.9523 13.6487C12.3044 13.9145 12.653 13.9145 12.9189 13.6487L13.0293 13.5382C13.2951 13.2724 13.2951 12.8374 13.0293 12.5716C12.836 12.3783 12.5322 12.2782 12.0075 11.8536L13.416 10.4451C13.9062 11.0699 13.8889 11.2356 14.1616 11.4393C14.5138 11.7051 14.8624 11.7051 15.1282 11.4393L15.2387 11.3288C15.5045 11.063 15.5045 10.6281 15.2387 10.3622C15.0454 10.1689 14.7416 10.0688 14.2169 9.6442L15.5977 8.26334L14.3273 6.99295Z" fill="url(#paint0_linear_221_190)"/>
</g>
<defs>
<linearGradient id="paint0_linear_221_190" x1="19.4781" y1="0.917806" x2="4.90111" y2="22.1264" gradientUnits="userSpaceOnUse">
<stop stop-color="#00CB08"/>
<stop offset="1" stop-color="#00BF6F"/>
</linearGradient>
<clipPath id="clip0_221_190">
<rect width="21.2117" height="21.2117" fill="white" transform="translate(0.391846 0.263916)"/>
</clipPath>
</defs>
</svg>
