<svg width="13" height="13" viewBox="0 0 13 13" fill="none" xmlns="http://www.w3.org/2000/svg">
<g clip-path="url(#clip0_221_1051)">
<path d="M2.09347 3.07816C1.49895 3.07816 1.02341 3.60983 1.09822 4.20331V4.20428C1.2473 5.37544 1.80028 6.22656 2.26342 6.90874C2.72655 7.59093 3.05942 8.0926 3.05942 8.57889C3.05848 8.64515 3.07073 8.71094 3.09544 8.77244C3.12015 8.83393 3.15683 8.8899 3.20336 8.93709C3.24989 8.98428 3.30533 9.02175 3.36647 9.04733C3.4276 9.07291 3.49322 9.08608 3.55949 9.08608C3.62576 9.08608 3.69137 9.07291 3.75251 9.04733C3.81364 9.02175 3.86909 8.98428 3.91561 8.93709C3.96214 8.8899 3.99883 8.83393 4.02354 8.77244C4.04825 8.71094 4.06049 8.64515 4.05955 8.57889C4.05955 8.57083 4.05768 8.56346 4.0576 8.55545C4.54691 9.66211 5.05969 10.0791 5.05969 10.0791H7.05995C7.05995 10.0791 7.57273 9.66211 8.06204 8.55545C8.06196 8.56346 8.06009 8.57083 8.06009 8.57889C8.05915 8.64515 8.07139 8.71094 8.0961 8.77244C8.12081 8.83393 8.1575 8.8899 8.20403 8.93709C8.25055 8.98428 8.306 9.02175 8.36713 9.04733C8.42827 9.07291 8.49388 9.08608 8.56015 9.08608C8.62642 9.08608 8.69203 9.07291 8.75317 9.04733C8.81431 9.02175 8.86975 8.98428 8.91628 8.93709C8.96281 8.8899 8.99949 8.83393 9.0242 8.77244C9.04891 8.71094 9.06116 8.64515 9.06022 8.57889C9.06022 8.0926 9.39309 7.59093 9.85622 6.90874C10.3194 6.22656 10.8723 5.37544 11.0214 4.20428C11.0973 3.60996 10.6207 3.07816 10.0262 3.07816H2.09347ZM10.0291 4.07731C9.91114 5.00394 9.4817 5.68027 9.02897 6.34715C8.86789 6.58439 8.70532 6.8259 8.55429 7.0738C8.74981 6.27515 8.89145 5.28638 8.92348 4.07829H10.0262C10.0317 4.07829 10.0291 4.07731 10.0291 4.07731ZM2.09054 4.07829C2.09034 4.07668 2.08792 4.07829 2.09347 4.07829H3.19616C3.22819 5.28638 3.36983 6.27515 3.56535 7.0738C3.41433 6.8259 3.25174 6.58439 3.09067 6.34715C2.6381 5.68051 2.20868 5.0044 2.09054 4.07829ZM4.05955 11.0792C3.78352 11.0792 3.55949 11.3033 3.55949 11.5793C3.55949 11.8553 3.78352 12.0794 4.05955 12.0794H8.06009C8.33612 12.0794 8.56015 11.8553 8.56015 11.5793C8.56015 11.3033 8.33612 11.0792 8.06009 11.0792H4.05955Z" fill="white"/>
</g>
<defs>
<clipPath id="clip0_221_1051">
<rect width="11.9446" height="11.9446" fill="white" transform="translate(0.550049 0.974335)"/>
</clipPath>
</defs>
</svg>
