<svg width="20" height="19" viewBox="0 0 20 19" fill="none" xmlns="http://www.w3.org/2000/svg">
<g clip-path="url(#clip0_221_1787)">
<path d="M9.60502 0.767517C4.74439 0.767517 0.767517 4.74439 0.767517 9.60502C0.767517 14.4656 4.74439 18.4425 9.60502 18.4425C14.4656 18.4425 18.4425 14.4656 18.4425 9.60502C18.4425 4.74439 14.4656 0.767517 9.60502 0.767517ZM9.60502 2.53502C10.5208 2.53502 11.3943 2.71673 12.1993 3.0373L9.60502 4.12646L7.01073 3.0373C7.81573 2.71673 8.68927 2.53502 9.60502 2.53502ZM4.21621 5.04473L4.39055 7.92555L2.55573 10.0124C2.54788 9.8767 2.53502 9.74256 2.53502 9.60502C2.53502 7.87057 3.16985 6.27826 4.21621 5.04473ZM14.9938 5.04473C16.0402 6.27826 16.675 7.87057 16.675 9.60502C16.675 9.74256 16.6622 9.8767 16.6543 10.0124L14.8195 7.92555L14.9938 5.04473ZM9.60502 6.44975L12.926 8.85763L11.5986 12.7603H7.6114L6.28405 8.85763L9.60502 6.44975ZM3.62072 13.3437L6.42386 14.0238L7.84097 16.442C6.07231 15.9827 4.57073 14.8551 3.62072 13.3437ZM15.5893 13.3437C14.6393 14.8551 13.1377 15.9827 11.3691 16.442L12.7862 14.0238L15.5893 13.3437Z" fill="white"/>
</g>
<defs>
<clipPath id="clip0_221_1787">
<rect width="18.55" height="18.55" fill="white" transform="translate(0.83905 0.129333)"/>
</clipPath>
</defs>
</svg>
