<svg width="23" height="22" viewBox="0 0 23 22" fill="none" xmlns="http://www.w3.org/2000/svg">
<g clip-path="url(#clip0_221_205)">
<path d="M4.60673 2.76752C3.63019 2.76752 2.83923 3.55847 2.83923 4.53502V6.30252V8.95377C2.83923 9.91976 3.64074 10.7213 4.60673 10.7213H9.02548C9.99148 10.7213 10.793 9.91976 10.793 8.95377V5.41877V4.53502C10.793 3.55847 10.002 2.76752 9.02548 2.76752H4.60673ZM14.328 2.76752C13.3514 2.76752 12.5605 3.55847 12.5605 4.53502V6.30252V8.95377C12.5605 9.91976 13.362 10.7213 14.328 10.7213H18.7467C19.7127 10.7213 20.5142 9.91976 20.5142 8.95377V5.41877V4.53502C20.5142 3.55847 19.7233 2.76752 18.7467 2.76752H14.328ZM4.60673 6.30252H9.02548V8.95377H4.60673V6.30252ZM14.328 6.30252H18.7467V8.95377H14.328V6.30252ZM4.60673 12.4888C3.63019 12.4888 2.83923 13.2797 2.83923 14.2563V16.0238V18.675C2.83923 19.641 3.64074 20.4425 4.60673 20.4425H9.02548C9.99148 20.4425 10.793 19.641 10.793 18.675V15.14V14.2563C10.793 13.2797 10.002 12.4888 9.02548 12.4888H4.60673ZM14.328 12.4888C13.3514 12.4888 12.5605 13.2797 12.5605 14.2563V15.14V16.0238V18.675C12.5605 19.641 13.362 20.4425 14.328 20.4425H18.7467C19.7127 20.4425 20.5142 19.641 20.5142 18.675V16.0238V15.14V14.2563C20.5142 13.2797 19.7233 12.4888 18.7467 12.4888H14.328ZM4.60673 16.0238H9.02548V18.675H4.60673V16.0238ZM14.328 16.0238H18.7467V18.675H14.328V16.0238Z" fill="white"/>
</g>
<defs>
<clipPath id="clip0_221_205">
<rect width="21.2117" height="21.2117" fill="white" transform="translate(0.927734 0.263916)"/>
</clipPath>
</defs>
</svg>
