<svg width="13" height="13" viewBox="0 0 13 13" fill="none" xmlns="http://www.w3.org/2000/svg">
<g clip-path="url(#clip0_221_1318)">
<path d="M1.60153 2.80621C1.007 2.80621 0.531471 3.33789 0.606278 3.93136V3.93234C0.75536 5.1035 1.30834 5.95462 1.77147 6.6368C2.23461 7.31898 2.56748 7.82066 2.56748 8.30695C2.56654 8.37321 2.57878 8.439 2.60349 8.50049C2.6282 8.56199 2.66489 8.61795 2.71142 8.66514C2.75794 8.71234 2.81339 8.74981 2.87452 8.77539C2.93566 8.80096 3.00127 8.81413 3.06754 8.81413C3.13381 8.81413 3.19943 8.80096 3.26056 8.77539C3.3217 8.74981 3.37714 8.71234 3.42367 8.66514C3.4702 8.61795 3.50688 8.56199 3.53159 8.50049C3.5563 8.439 3.56855 8.37321 3.56761 8.30695C3.56761 8.29889 3.56574 8.29152 3.56566 8.28351C4.05496 9.39017 4.56774 9.80715 4.56774 9.80715H6.56801C6.56801 9.80715 7.08079 9.39017 7.5701 8.28351C7.57001 8.29152 7.56814 8.29889 7.56814 8.30695C7.56721 8.37321 7.57945 8.439 7.60416 8.50049C7.62887 8.56199 7.66555 8.61795 7.71208 8.66514C7.75861 8.71234 7.81405 8.74981 7.87519 8.77539C7.93633 8.80096 8.00194 8.81413 8.06821 8.81413C8.13448 8.81413 8.20009 8.80096 8.26123 8.77539C8.32237 8.74981 8.37781 8.71234 8.42434 8.66514C8.47087 8.61795 8.50755 8.56199 8.53226 8.50049C8.55697 8.439 8.56921 8.37321 8.56828 8.30695C8.56828 7.82066 8.90115 7.31898 9.36428 6.6368C9.82741 5.95462 10.3804 5.10349 10.5295 3.93234C10.6054 3.33802 10.1287 2.80621 9.53422 2.80621H1.60153ZM9.53716 3.80537C9.4192 4.73199 8.98976 5.40833 8.53702 6.0752C8.37595 6.31245 8.21337 6.55396 8.06235 6.80186C8.25786 6.00321 8.39951 5.01444 8.43154 3.80635H9.53422C9.53978 3.80635 9.53716 3.80537 9.53716 3.80537ZM1.5986 3.80635C1.5984 3.80474 1.59597 3.80635 1.60153 3.80635H2.70421C2.73624 5.01444 2.87789 6.00321 3.0734 6.80186C2.92238 6.55396 2.7598 6.31245 2.59873 6.0752C2.14616 5.40857 1.71674 4.73245 1.5986 3.80635ZM3.56761 10.8073C3.29157 10.8073 3.06754 11.0313 3.06754 11.3073C3.06754 11.5834 3.29157 11.8074 3.56761 11.8074H7.56814C7.84418 11.8074 8.06821 11.5834 8.06821 11.3073C8.06821 11.0313 7.84418 10.8073 7.56814 10.8073H3.56761Z" fill="white"/>
</g>
<defs>
<clipPath id="clip0_221_1318">
<rect width="11.9446" height="11.9446" fill="white" transform="translate(0.0581055 0.702454)"/>
</clipPath>
</defs>
</svg>
