<svg width="13" height="13" viewBox="0 0 13 13" fill="none" xmlns="http://www.w3.org/2000/svg">
<g clip-path="url(#clip0_221_1226)">
<path d="M6.64061 1.23761C3.9193 1.23761 1.71338 3.44353 1.71338 6.16484C1.71338 8.88615 3.9193 11.0921 6.64061 11.0921C9.36192 11.0921 11.5678 8.88615 11.5678 6.16484C11.5678 3.44353 9.36192 1.23761 6.64061 1.23761ZM7.91479 8.13574L6.29226 6.5132C6.19962 6.42057 6.14789 6.29541 6.14789 6.16484V3.70123C6.14789 3.42924 6.36863 3.2085 6.64061 3.2085C6.9126 3.2085 7.13334 3.42924 7.13334 3.70123V5.96086L8.6115 7.43903C8.80367 7.63119 8.80367 7.94357 8.6115 8.13574C8.41934 8.3279 8.10696 8.3279 7.91479 8.13574Z" fill="white"/>
</g>
<defs>
<clipPath id="clip0_221_1226">
<rect width="11.9446" height="11.9446" fill="white" transform="translate(0.728027 0.40094)"/>
</clipPath>
</defs>
</svg>
