<svg width="13" height="13" viewBox="0 0 13 13" fill="none" xmlns="http://www.w3.org/2000/svg">
<g clip-path="url(#clip0_221_1118)">
<path d="M6.35858 1.81078C3.62151 1.81078 1.38208 4.05021 1.38208 6.78729C1.38208 9.52437 3.62151 11.7638 6.35858 11.7638C9.09566 11.7638 11.3351 9.52437 11.3351 6.78729C11.3351 4.05021 9.09566 1.81078 6.35858 1.81078ZM6.35858 2.80608C6.87425 2.80608 7.36615 2.90841 7.81946 3.08893L6.35858 3.70224L4.89771 3.08893C5.35102 2.90841 5.84292 2.80608 6.35858 2.80608ZM3.32408 4.21933L3.42225 5.84156L2.38904 7.01667C2.38462 6.94028 2.37738 6.86474 2.37738 6.78729C2.37738 5.8106 2.73486 4.91395 3.32408 4.21933ZM9.39309 4.21933C9.98231 4.91395 10.3398 5.8106 10.3398 6.78729C10.3398 6.86474 10.3325 6.94028 10.3281 7.01667L9.29492 5.84156L9.39309 4.21933ZM6.35858 5.01052L8.22866 6.36642L7.48121 8.56406H5.23596L4.48851 6.36642L6.35858 5.01052ZM2.98875 8.89258L4.56724 9.27554L5.36523 10.6373C4.36927 10.3787 3.52371 9.74367 2.98875 8.89258ZM9.72842 8.89258C9.19346 9.74367 8.3479 10.3787 7.35194 10.6373L8.14993 9.27554L9.72842 8.89258Z" fill="white"/>
</g>
<defs>
<clipPath id="clip0_221_1118">
<rect width="11.9446" height="11.9446" fill="white" transform="translate(0.639038 0.400993)"/>
</clipPath>
</defs>
</svg>
