<svg width="13" height="13" viewBox="0 0 13 13" fill="none" xmlns="http://www.w3.org/2000/svg">
<g clip-path="url(#clip0_221_1200)">
<path d="M2.09347 2.29138C1.49895 2.29138 1.02341 2.82306 1.09822 3.41653V3.41751C1.2473 4.58866 1.80028 5.43979 2.26342 6.12197C2.72655 6.80415 3.05942 7.30582 3.05942 7.79211C3.05848 7.85838 3.07073 7.92417 3.09544 7.98566C3.12015 8.04715 3.15683 8.10312 3.20336 8.15031C3.24989 8.1975 3.30533 8.23498 3.36647 8.26055C3.4276 8.28613 3.49322 8.2993 3.55949 8.2993C3.62576 8.2993 3.69137 8.28613 3.75251 8.26055C3.81364 8.23498 3.86909 8.1975 3.91561 8.15031C3.96214 8.10312 3.99883 8.04715 4.02354 7.98566C4.04825 7.92417 4.06049 7.85838 4.05955 7.79211C4.05955 7.78406 4.05768 7.77669 4.0576 7.76867C4.54691 8.87534 5.05969 9.29231 5.05969 9.29231H7.05995C7.05995 9.29231 7.57273 8.87534 8.06204 7.76867C8.06196 7.77669 8.06009 7.78406 8.06009 7.79211C8.05915 7.85838 8.07139 7.92417 8.0961 7.98566C8.12081 8.04715 8.1575 8.10312 8.20403 8.15031C8.25055 8.1975 8.306 8.23498 8.36713 8.26055C8.42827 8.28613 8.49388 8.2993 8.56015 8.2993C8.62642 8.2993 8.69203 8.28613 8.75317 8.26055C8.81431 8.23498 8.86975 8.1975 8.91628 8.15031C8.96281 8.10312 8.99949 8.04715 9.0242 7.98566C9.04891 7.92417 9.06116 7.85838 9.06022 7.79211C9.06022 7.30582 9.39309 6.80415 9.85622 6.12197C10.3194 5.43979 10.8723 4.58866 11.0214 3.41751C11.0973 2.82319 10.6207 2.29138 10.0262 2.29138H2.09347ZM10.0291 3.29054C9.91114 4.21716 9.4817 4.8935 9.02897 5.56037C8.86789 5.79762 8.70532 6.03913 8.55429 6.28703C8.74981 5.48837 8.89145 4.49961 8.92348 3.29151H10.0262C10.0317 3.29151 10.0291 3.29054 10.0291 3.29054ZM2.09054 3.29151C2.09034 3.28991 2.08792 3.29151 2.09347 3.29151H3.19616C3.22819 4.49961 3.36983 5.48837 3.56535 6.28703C3.41433 6.03913 3.25174 5.79762 3.09067 5.56037C2.6381 4.89374 2.20868 4.21762 2.09054 3.29151ZM4.05955 10.2924C3.78352 10.2924 3.55949 10.5165 3.55949 10.7925C3.55949 11.0686 3.78352 11.2926 4.05955 11.2926H8.06009C8.33612 11.2926 8.56015 11.0686 8.56015 10.7925C8.56015 10.5165 8.33612 10.2924 8.06009 10.2924H4.05955Z" fill="white"/>
</g>
<defs>
<clipPath id="clip0_221_1200">
<rect width="11.9446" height="11.9446" fill="white" transform="translate(0.550049 0.187622)"/>
</clipPath>
</defs>
</svg>
