<svg width="23" height="22" viewBox="0 0 23 22" fill="none" xmlns="http://www.w3.org/2000/svg">
<g clip-path="url(#clip0_221_1010)">
<path d="M4.60686 2.76752C3.63031 2.76752 2.83936 3.55847 2.83936 4.53502V6.30252V8.95377C2.83936 9.91976 3.64086 10.7213 4.60686 10.7213H9.02561C9.9916 10.7213 10.7931 9.91976 10.7931 8.95377V5.41877V4.53502C10.7931 3.55847 10.0021 2.76752 9.02561 2.76752H4.60686ZM14.3281 2.76752C13.3516 2.76752 12.5606 3.55847 12.5606 4.53502V6.30252V8.95377C12.5606 9.91976 13.3621 10.7213 14.3281 10.7213H18.7469C19.7128 10.7213 20.5144 9.91976 20.5144 8.95377V5.41877V4.53502C20.5144 3.55847 19.7234 2.76752 18.7469 2.76752H14.3281ZM4.60686 6.30252H9.02561V8.95377H4.60686V6.30252ZM14.3281 6.30252H18.7469V8.95377H14.3281V6.30252ZM4.60686 12.4888C3.63031 12.4888 2.83936 13.2797 2.83936 14.2563V16.0238V18.675C2.83936 19.641 3.64086 20.4425 4.60686 20.4425H9.02561C9.9916 20.4425 10.7931 19.641 10.7931 18.675V15.14V14.2563C10.7931 13.2797 10.0021 12.4888 9.02561 12.4888H4.60686ZM14.3281 12.4888C13.3516 12.4888 12.5606 13.2797 12.5606 14.2563V15.14V16.0238V18.675C12.5606 19.641 13.3621 20.4425 14.3281 20.4425H18.7469C19.7128 20.4425 20.5144 19.641 20.5144 18.675V16.0238V15.14V14.2563C20.5144 13.2797 19.7234 12.4888 18.7469 12.4888H14.3281ZM4.60686 16.0238H9.02561V18.675H4.60686V16.0238ZM14.3281 16.0238H18.7469V18.675H14.3281V16.0238Z" fill="white"/>
</g>
<defs>
<clipPath id="clip0_221_1010">
<rect width="21.2117" height="21.2117" fill="white" transform="translate(0.927734 0.263916)"/>
</clipPath>
</defs>
</svg>
