<svg width="13" height="13" viewBox="0 0 13 13" fill="none" xmlns="http://www.w3.org/2000/svg">
<g clip-path="url(#clip0_221_1236)">
<path d="M2.09347 2.5047C1.49895 2.5047 1.02341 3.03638 1.09822 3.62985V3.63083C1.2473 4.80198 1.80028 5.65311 2.26342 6.33529C2.72655 7.01747 3.05942 7.51914 3.05942 8.00543C3.05848 8.0717 3.07073 8.13749 3.09544 8.19898C3.12015 8.26047 3.15683 8.31644 3.20336 8.36363C3.24989 8.41082 3.30533 8.44829 3.36647 8.47387C3.4276 8.49945 3.49322 8.51262 3.55949 8.51262C3.62576 8.51262 3.69137 8.49945 3.75251 8.47387C3.81364 8.44829 3.86909 8.41082 3.91561 8.36363C3.96214 8.31644 3.99883 8.26047 4.02354 8.19898C4.04825 8.13749 4.06049 8.0717 4.05955 8.00543C4.05955 7.99738 4.05768 7.99001 4.0576 7.98199C4.54691 9.08866 5.05969 9.50563 5.05969 9.50563H7.05995C7.05995 9.50563 7.57273 9.08866 8.06204 7.98199C8.06196 7.99001 8.06009 7.99738 8.06009 8.00543C8.05915 8.0717 8.07139 8.13749 8.0961 8.19898C8.12081 8.26047 8.1575 8.31644 8.20403 8.36363C8.25055 8.41082 8.306 8.44829 8.36713 8.47387C8.42827 8.49945 8.49388 8.51262 8.56015 8.51262C8.62642 8.51262 8.69203 8.49945 8.75317 8.47387C8.81431 8.44829 8.86975 8.41082 8.91628 8.36363C8.96281 8.31644 8.99949 8.26047 9.0242 8.19898C9.04891 8.13749 9.06116 8.0717 9.06022 8.00543C9.06022 7.51914 9.39309 7.01747 9.85622 6.33529C10.3194 5.65311 10.8723 4.80198 11.0214 3.63083C11.0973 3.03651 10.6207 2.5047 10.0262 2.5047H2.09347ZM10.0291 3.50386C9.91114 4.43048 9.4817 5.10682 9.02897 5.77369C8.86789 6.01094 8.70532 6.25244 8.55429 6.50035C8.74981 5.70169 8.89145 4.71293 8.92348 3.50483H10.0262C10.0317 3.50483 10.0291 3.50386 10.0291 3.50386ZM2.09054 3.50483C2.09034 3.50323 2.08792 3.50483 2.09347 3.50483H3.19616C3.22819 4.71293 3.36983 5.70169 3.56535 6.50035C3.41433 6.25244 3.25174 6.01094 3.09067 5.77369C2.6381 5.10706 2.20868 4.43094 2.09054 3.50483ZM4.05955 10.5058C3.78352 10.5058 3.55949 10.7298 3.55949 11.0058C3.55949 11.2819 3.78352 11.5059 4.05955 11.5059H8.06009C8.33612 11.5059 8.56015 11.2819 8.56015 11.0058C8.56015 10.7298 8.33612 10.5058 8.06009 10.5058H4.05955Z" fill="white"/>
</g>
<defs>
<clipPath id="clip0_221_1236">
<rect width="11.9446" height="11.9446" fill="white" transform="translate(0.550049 0.40094)"/>
</clipPath>
</defs>
</svg>
