<svg width="13" height="13" viewBox="0 0 13 13" fill="none" xmlns="http://www.w3.org/2000/svg">
<g clip-path="url(#clip0_221_1113)">
<path d="M6.64061 1.23766C3.9193 1.23766 1.71338 3.44359 1.71338 6.1649C1.71338 8.88621 3.9193 11.0921 6.64061 11.0921C9.36192 11.0921 11.5678 8.88621 11.5678 6.1649C11.5678 3.44359 9.36192 1.23766 6.64061 1.23766ZM7.91479 8.13579L6.29226 6.51325C6.19962 6.42062 6.14789 6.29547 6.14789 6.1649V3.70128C6.14789 3.4293 6.36863 3.20856 6.64061 3.20856C6.9126 3.20856 7.13334 3.4293 7.13334 3.70128V5.96091L8.6115 7.43908C8.80367 7.63124 8.80367 7.94363 8.6115 8.13579C8.41934 8.32795 8.10696 8.32795 7.91479 8.13579Z" fill="white"/>
</g>
<defs>
<clipPath id="clip0_221_1113">
<rect width="11.9446" height="11.9446" fill="white" transform="translate(0.728027 0.400993)"/>
</clipPath>
</defs>
</svg>
