<svg width="13" height="13" viewBox="0 0 13 13" fill="none" xmlns="http://www.w3.org/2000/svg">
<g clip-path="url(#clip0_221_1231)">
<path d="M6.35858 1.81067C3.62151 1.81067 1.38208 4.0501 1.38208 6.78717C1.38208 9.52425 3.62151 11.7637 6.35858 11.7637C9.09566 11.7637 11.3351 9.52425 11.3351 6.78717C11.3351 4.0501 9.09566 1.81067 6.35858 1.81067ZM6.35858 2.80597C6.87425 2.80597 7.36615 2.90829 7.81946 3.08881L6.35858 3.70213L4.89771 3.08881C5.35102 2.90829 5.84292 2.80597 6.35858 2.80597ZM3.32408 4.21922L3.42225 5.84144L2.38904 7.01656C2.38462 6.94016 2.37738 6.86463 2.37738 6.78717C2.37738 5.81048 2.73486 4.91383 3.32408 4.21922ZM9.39309 4.21922C9.98231 4.91383 10.3398 5.81048 10.3398 6.78717C10.3398 6.86463 10.3325 6.94016 10.3281 7.01656L9.29492 5.84144L9.39309 4.21922ZM6.35858 5.01041L8.22866 6.36631L7.48121 8.56394H5.23596L4.48851 6.36631L6.35858 5.01041ZM2.98875 8.89247L4.56724 9.27543L5.36523 10.6372C4.36927 10.3785 3.52371 9.74355 2.98875 8.89247ZM9.72842 8.89247C9.19346 9.74355 8.3479 10.3785 7.35194 10.6372L8.14993 9.27543L9.72842 8.89247Z" fill="white"/>
</g>
<defs>
<clipPath id="clip0_221_1231">
<rect width="11.9446" height="11.9446" fill="white" transform="translate(0.639038 0.40094)"/>
</clipPath>
</defs>
</svg>
