<svg width="22" height="22" viewBox="0 0 22 22" fill="none" xmlns="http://www.w3.org/2000/svg">
<g clip-path="url(#clip0_221_185)">
<path d="M7.15249 2.76751C6.17554 2.76751 5.385 3.55805 5.385 4.53501C5.385 5.51196 6.17554 6.30251 7.15249 6.30251C8.12945 6.30251 8.91999 5.51196 8.91999 4.53501C8.91999 3.55805 8.12945 2.76751 7.15249 2.76751ZM16.6804 2.76751C16.4008 2.80203 16.2662 2.93321 16.2662 2.93321L6.98679 12.185C6.75895 12.4128 6.75895 12.7856 6.98679 13.0135L10.1628 16.1895C10.3906 16.4173 10.7634 16.4173 10.9913 16.1895L20.243 6.91008C20.243 6.91008 21.0025 5.90206 19.1384 4.0379C17.9715 2.87107 17.1465 2.70882 16.6804 2.76751ZM6.73824 14.0906V14.4772C6.74169 14.8638 6.5967 15.2539 6.32398 15.5266L2.89945 18.9236C2.6647 19.1583 2.6647 19.5449 2.89945 19.7797L3.39656 20.2768C3.6313 20.5115 4.01794 20.5115 4.25269 20.2768L7.6496 16.8523C7.92923 16.5726 8.30551 16.4311 8.69906 16.438H9.0857L6.73824 14.0906Z" fill="url(#paint0_linear_221_185)"/>
</g>
<defs>
<linearGradient id="paint0_linear_221_185" x1="19.9851" y1="0.905329" x2="5.36921" y2="22.0813" gradientUnits="userSpaceOnUse">
<stop stop-color="#00CB08"/>
<stop offset="1" stop-color="#00BF6F"/>
</linearGradient>
<clipPath id="clip0_221_185">
<rect width="21.2117" height="21.2117" fill="white" transform="translate(0.695923 0.263916)"/>
</clipPath>
</defs>
</svg>
