<svg width="22" height="22" viewBox="0 0 22 22" fill="none" xmlns="http://www.w3.org/2000/svg">
<g clip-path="url(#clip0_221_200)">
<path d="M11.2094 3C6.25935 3 2.20935 7.05 2.20935 12C2.20935 16.95 6.25935 21 11.2094 21C13.4664 21 15.5301 20.1633 17.1156 18.7781C17.2984 18.6902 17.4496 18.5391 17.5375 18.3562C19.1758 16.725 20.2094 14.482 20.2094 12C20.2094 7.05 16.1594 3 11.2094 3ZM12.1375 4.85625C13.2801 5.00742 14.3488 5.43984 15.2594 6.06562C14.1625 7.02891 12.3906 9.01523 12.1656 11.9719C11.8597 11.9859 11.5398 12 11.2094 12C10.8965 12 10.5976 11.9824 10.3094 11.9719C10.3129 9.49687 10.791 7.69687 11.2656 6.51562C11.7226 5.38008 12.1058 4.89492 12.1375 4.85625ZM10.0281 4.9125C9.89099 5.17969 9.74685 5.49609 9.60623 5.84062C9.0613 7.18711 8.53396 9.17695 8.50935 11.8031C8.18591 11.7574 7.86599 11.6941 7.58123 11.6344C7.4406 8.68125 6.80779 6.91641 6.62498 6.45937C7.57771 5.67187 8.75896 5.12695 10.0281 4.9125ZM16.6094 7.275C17.3582 8.13281 17.9066 9.17695 18.1844 10.3125C18.0472 10.432 17.7238 10.6816 16.8625 11.0437C16.191 11.3285 15.2242 11.5887 13.9937 11.775C14.2961 9.36328 15.8394 7.88672 16.6094 7.275ZM5.24685 8.00625C5.43669 8.69531 5.64763 9.67617 5.7531 11.1C5.69334 11.0754 5.61248 11.0684 5.55623 11.0437C4.6949 10.6816 4.37146 10.432 4.23435 10.3125C4.43826 9.48281 4.78279 8.69883 5.24685 8.00625ZM4.00935 12.3094C4.25544 12.4465 4.52966 12.566 4.8531 12.7031C5.1238 12.8156 5.45076 12.9352 5.78123 13.0406C5.74255 14.243 5.51052 15.2977 5.27498 16.05C4.54021 14.9742 4.06912 13.691 4.00935 12.3094ZM18.4094 12.3094C18.3355 14.0566 17.6113 15.6527 16.4969 16.8656C15.734 16.4578 14.3312 15.4629 14.0219 13.6031C15.5125 13.3992 16.7078 13.0652 17.5656 12.7031C17.889 12.566 18.1633 12.4465 18.4094 12.3094ZM7.58123 13.4906C7.88709 13.5469 8.22459 13.5891 8.5656 13.6312C8.72732 15.5543 9.16677 17.073 9.60623 18.1594C9.74685 18.5039 9.89099 18.8203 10.0281 19.0875C8.77302 18.8766 7.60232 18.3422 6.6531 17.5687C6.95193 16.841 7.46169 15.3539 7.58123 13.4906ZM10.3937 13.7719C10.6574 13.7824 10.9281 13.8 11.2094 13.8C11.5574 13.8 11.8984 13.7859 12.2219 13.7719C12.5453 15.9867 13.9691 17.3437 15.0625 18.075C14.1976 18.627 13.1957 19.0031 12.1375 19.1437C12.1058 19.1051 11.7226 18.6199 11.2656 17.4844C10.9105 16.602 10.5519 15.3715 10.3937 13.7719Z" fill="url(#paint0_linear_221_200)"/>
</g>
<defs>
<linearGradient id="paint0_linear_221_200" x1="19.7907" y1="1.11628" x2="4.93028" y2="22.6744" gradientUnits="userSpaceOnUse">
<stop stop-color="#00CB08"/>
<stop offset="1" stop-color="#00BF6F"/>
</linearGradient>
<clipPath id="clip0_221_200">
<rect width="21.2117" height="21.2117" fill="white" transform="translate(0.783691 0.263916)"/>
</clipPath>
</defs>
</svg>
