<svg width="13" height="13" viewBox="0 0 13 13" fill="none" xmlns="http://www.w3.org/2000/svg">
<g clip-path="url(#clip0_221_1041)">
<path d="M6.64061 1.811C3.9193 1.811 1.71338 4.01693 1.71338 6.73824C1.71338 9.45955 3.9193 11.6655 6.64061 11.6655C9.36192 11.6655 11.5678 9.45955 11.5678 6.73824C11.5678 4.01693 9.36192 1.811 6.64061 1.811ZM7.91479 8.70913L6.29226 7.08659C6.19962 6.99396 6.14789 6.86881 6.14789 6.73824V4.27462C6.14789 4.00264 6.36863 3.7819 6.64061 3.7819C6.9126 3.7819 7.13334 4.00264 7.13334 4.27462V6.53425L8.6115 8.01242C8.80367 8.20458 8.80367 8.51697 8.6115 8.70913C8.41934 8.90129 8.10696 8.90129 7.91479 8.70913Z" fill="white"/>
</g>
<defs>
<clipPath id="clip0_221_1041">
<rect width="11.9446" height="11.9446" fill="white" transform="translate(0.728027 0.974335)"/>
</clipPath>
</defs>
</svg>
