<svg width="13" height="13" viewBox="0 0 13 13" fill="none" xmlns="http://www.w3.org/2000/svg">
<g clip-path="url(#clip0_221_1077)">
<path d="M6.64061 1.02433C3.9193 1.02433 1.71338 3.23025 1.71338 5.95156C1.71338 8.67287 3.9193 10.8788 6.64061 10.8788C9.36192 10.8788 11.5678 8.67287 11.5678 5.95156C11.5678 3.23025 9.36192 1.02433 6.64061 1.02433ZM7.91479 7.92246L6.29226 6.29992C6.19962 6.20729 6.14789 6.08213 6.14789 5.95156V3.48795C6.14789 3.21596 6.36863 2.99522 6.64061 2.99522C6.9126 2.99522 7.13334 3.21596 7.13334 3.48795V5.74758L8.6115 7.22575C8.80367 7.41791 8.80367 7.73029 8.6115 7.92246C8.41934 8.11462 8.10696 8.11462 7.91479 7.92246Z" fill="white"/>
</g>
<defs>
<clipPath id="clip0_221_1077">
<rect width="11.9446" height="11.9446" fill="white" transform="translate(0.728027 0.18766)"/>
</clipPath>
</defs>
</svg>
