<svg width="13" height="13" viewBox="0 0 13 13" fill="none" xmlns="http://www.w3.org/2000/svg">
<g clip-path="url(#clip0_221_1190)">
<path d="M6.64061 1.02429C3.9193 1.02429 1.71338 3.23021 1.71338 5.95152C1.71338 8.67284 3.9193 10.8788 6.64061 10.8788C9.36192 10.8788 11.5678 8.67284 11.5678 5.95152C11.5678 3.23021 9.36192 1.02429 6.64061 1.02429ZM7.91479 7.92242L6.29226 6.29988C6.19962 6.20725 6.14789 6.0821 6.14789 5.95152V3.48791C6.14789 3.21593 6.36863 2.99519 6.64061 2.99519C6.9126 2.99519 7.13334 3.21593 7.13334 3.48791V5.74754L8.6115 7.22571C8.80367 7.41787 8.80367 7.73026 8.6115 7.92242C8.41934 8.11458 8.10696 8.11458 7.91479 7.92242Z" fill="white"/>
</g>
<defs>
<clipPath id="clip0_221_1190">
<rect width="11.9446" height="11.9446" fill="white" transform="translate(0.728027 0.187622)"/>
</clipPath>
</defs>
</svg>
