<svg width="13" height="13" viewBox="0 0 13 13" fill="none" xmlns="http://www.w3.org/2000/svg">
<g clip-path="url(#clip0_221_1082)">
<path d="M6.35858 1.59745C3.62151 1.59745 1.38208 3.83688 1.38208 6.57395C1.38208 9.31103 3.62151 11.5505 6.35858 11.5505C9.09566 11.5505 11.3351 9.31103 11.3351 6.57395C11.3351 3.83688 9.09566 1.59745 6.35858 1.59745ZM6.35858 2.59275C6.87425 2.59275 7.36615 2.69507 7.81946 2.8756L6.35858 3.48891L4.89771 2.8756C5.35102 2.69507 5.84292 2.59275 6.35858 2.59275ZM3.32408 4.006L3.42225 5.62822L2.38904 6.80334C2.38462 6.72694 2.37738 6.65141 2.37738 6.57395C2.37738 5.59727 2.73486 4.70062 3.32408 4.006ZM9.39309 4.006C9.98231 4.70062 10.3398 5.59727 10.3398 6.57395C10.3398 6.65141 10.3325 6.72694 10.3281 6.80334L9.29492 5.62822L9.39309 4.006ZM6.35858 4.79719L8.22866 6.15309L7.48121 8.35072H5.23596L4.48851 6.15309L6.35858 4.79719ZM2.98875 8.67925L4.56724 9.06221L5.36523 10.4239C4.36927 10.1653 3.52371 9.53033 2.98875 8.67925ZM9.72842 8.67925C9.19346 9.53033 8.3479 10.1653 7.35194 10.4239L8.14993 9.06221L9.72842 8.67925Z" fill="white"/>
</g>
<defs>
<clipPath id="clip0_221_1082">
<rect width="11.9446" height="11.9446" fill="white" transform="translate(0.639038 0.18766)"/>
</clipPath>
</defs>
</svg>
