<svg width="13" height="13" viewBox="0 0 13 13" fill="none" xmlns="http://www.w3.org/2000/svg">
<g clip-path="url(#clip0_221_1313)">
<path d="M5.8584 2.11218C3.12132 2.11218 0.881897 4.35161 0.881897 7.08869C0.881897 9.82576 3.12132 12.0652 5.8584 12.0652C8.59548 12.0652 10.8349 9.82576 10.8349 7.08869C10.8349 4.35161 8.59548 2.11218 5.8584 2.11218ZM5.8584 3.10748C6.37407 3.10748 6.86597 3.20981 7.31928 3.39033L5.8584 4.00364L4.39753 3.39033C4.85083 3.20981 5.34273 3.10748 5.8584 3.10748ZM2.8239 4.52073L2.92207 6.14296L1.88886 7.31807C1.88444 7.24168 1.8772 7.16614 1.8772 7.08869C1.8772 6.112 2.23468 5.21535 2.8239 4.52073ZM8.8929 4.52073C9.48212 5.21535 9.83961 6.112 9.83961 7.08869C9.83961 7.16614 9.83236 7.24168 9.82794 7.31807L8.79473 6.14296L8.8929 4.52073ZM5.8584 5.31192L7.72848 6.66782L6.98103 8.86545H4.73577L3.98832 6.66782L5.8584 5.31192ZM2.48857 9.19398L4.06705 9.57694L4.86504 10.9387C3.86909 10.6801 3.02353 10.0451 2.48857 9.19398ZM9.22823 9.19398C8.69327 10.0451 7.84771 10.6801 6.85176 10.9387L7.64975 9.57694L9.22823 9.19398Z" fill="white"/>
</g>
<defs>
<clipPath id="clip0_221_1313">
<rect width="11.9446" height="11.9446" fill="white" transform="translate(0.138916 0.702454)"/>
</clipPath>
</defs>
</svg>
