<svg width="13" height="13" viewBox="0 0 13 13" fill="none" xmlns="http://www.w3.org/2000/svg">
<g clip-path="url(#clip0_221_1308)">
<path d="M6.13237 1.53912C3.41106 1.53912 1.20514 3.74505 1.20514 6.46636C1.20514 9.18767 3.41106 11.3936 6.13237 11.3936C8.85368 11.3936 11.0596 9.18767 11.0596 6.46636C11.0596 3.74505 8.85368 1.53912 6.13237 1.53912ZM7.40655 8.43725L5.78402 6.81471C5.69138 6.72208 5.63965 6.59693 5.63965 6.46636V4.00274C5.63965 3.73076 5.86039 3.51002 6.13237 3.51002C6.40436 3.51002 6.6251 3.73076 6.6251 4.00274V6.26237L8.10327 7.74054C8.29543 7.9327 8.29543 8.24509 8.10327 8.43725C7.9111 8.62941 7.59872 8.62941 7.40655 8.43725Z" fill="white"/>
</g>
<defs>
<clipPath id="clip0_221_1308">
<rect width="11.9446" height="11.9446" fill="white" transform="translate(0.219849 0.702454)"/>
</clipPath>
</defs>
</svg>
