<svg width="13" height="13" viewBox="0 0 13 13" fill="none" xmlns="http://www.w3.org/2000/svg">
<g clip-path="url(#clip0_221_1123)">
<path d="M2.09347 2.50481C1.49895 2.50481 1.02341 3.03648 1.09822 3.62996V3.63093C1.2473 4.80209 1.80028 5.65321 2.26342 6.33539C2.72655 7.01758 3.05942 7.51925 3.05942 8.00554C3.05848 8.0718 3.07073 8.13759 3.09544 8.19909C3.12015 8.26058 3.15683 8.31655 3.20336 8.36374C3.24989 8.41093 3.30533 8.4484 3.36647 8.47398C3.4276 8.49956 3.49322 8.51273 3.55949 8.51273C3.62576 8.51273 3.69137 8.49956 3.75251 8.47398C3.81364 8.4484 3.86909 8.41093 3.91561 8.36374C3.96214 8.31655 3.99883 8.26058 4.02354 8.19909C4.04825 8.13759 4.06049 8.0718 4.05955 8.00554C4.05955 7.99749 4.05768 7.99012 4.0576 7.9821C4.54691 9.08876 5.05969 9.50574 5.05969 9.50574H7.05995C7.05995 9.50574 7.57273 9.08876 8.06204 7.9821C8.06196 7.99012 8.06009 7.99749 8.06009 8.00554C8.05915 8.0718 8.07139 8.13759 8.0961 8.19909C8.12081 8.26058 8.1575 8.31655 8.20403 8.36374C8.25055 8.41093 8.306 8.4484 8.36713 8.47398C8.42827 8.49956 8.49388 8.51273 8.56015 8.51273C8.62642 8.51273 8.69203 8.49956 8.75317 8.47398C8.81431 8.4484 8.86975 8.41093 8.91628 8.36374C8.96281 8.31655 8.99949 8.26058 9.0242 8.19909C9.04891 8.13759 9.06116 8.0718 9.06022 8.00554C9.06022 7.51925 9.39309 7.01758 9.85622 6.33539C10.3194 5.65321 10.8723 4.80209 11.0214 3.63093C11.0973 3.03661 10.6207 2.50481 10.0262 2.50481H2.09347ZM10.0291 3.50396C9.91114 4.43059 9.4817 5.10692 9.02897 5.7738C8.86789 6.01104 8.70532 6.25255 8.55429 6.50046C8.74981 5.7018 8.89145 4.71304 8.92348 3.50494H10.0262C10.0317 3.50494 10.0291 3.50396 10.0291 3.50396ZM2.09054 3.50494C2.09034 3.50333 2.08792 3.50494 2.09347 3.50494H3.19616C3.22819 4.71304 3.36983 5.7018 3.56535 6.50046C3.41433 6.25255 3.25174 6.01105 3.09067 5.7738C2.6381 5.10717 2.20868 4.43105 2.09054 3.50494ZM4.05955 10.5059C3.78352 10.5059 3.55949 10.7299 3.55949 11.0059C3.55949 11.282 3.78352 11.506 4.05955 11.506H8.06009C8.33612 11.506 8.56015 11.282 8.56015 11.0059C8.56015 10.7299 8.33612 10.5059 8.06009 10.5059H4.05955Z" fill="white"/>
</g>
<defs>
<clipPath id="clip0_221_1123">
<rect width="11.9446" height="11.9446" fill="white" transform="translate(0.550049 0.400993)"/>
</clipPath>
</defs>
</svg>
