<svg width="20" height="19" viewBox="0 0 20 19" fill="none" xmlns="http://www.w3.org/2000/svg">
<g clip-path="url(#clip0_221_1733)">
<path d="M9.60502 1.66214C4.74439 1.66214 0.767517 5.63901 0.767517 10.4996C0.767517 15.3603 4.74439 19.3371 9.60502 19.3371C14.4656 19.3371 18.4425 15.3603 18.4425 10.4996C18.4425 5.63901 14.4656 1.66214 9.60502 1.66214ZM9.60502 3.42964C10.5208 3.42964 11.3943 3.61135 12.1993 3.93193L9.60502 5.02108L7.01073 3.93193C7.81573 3.61135 8.68927 3.42964 9.60502 3.42964ZM4.21621 5.93935L4.39055 8.82017L2.55573 10.907C2.54788 10.7713 2.53502 10.6372 2.53502 10.4996C2.53502 8.76519 3.16985 7.17288 4.21621 5.93935ZM14.9938 5.93935C16.0402 7.17288 16.675 8.76519 16.675 10.4996C16.675 10.6372 16.6622 10.7713 16.6543 10.907L14.8195 8.82017L14.9938 5.93935ZM9.60502 7.34438L12.926 9.75225L11.5986 13.6549H7.6114L6.28405 9.75225L9.60502 7.34438ZM3.62072 14.2383L6.42386 14.9184L7.84097 17.3366C6.07231 16.8773 4.57073 15.7497 3.62072 14.2383ZM15.5893 14.2383C14.6393 15.7497 13.1377 16.8773 11.3691 17.3366L12.7862 14.9184L15.5893 14.2383Z" fill="white"/>
</g>
<defs>
<clipPath id="clip0_221_1733">
<rect width="18.55" height="18.55" fill="white" transform="translate(0.83905 0.40683)"/>
</clipPath>
</defs>
</svg>
