<svg width="20" height="19" viewBox="0 0 20 19" fill="none" xmlns="http://www.w3.org/2000/svg">
<g clip-path="url(#clip0_221_1512)">
<path d="M3.13249 2.00006C2.07671 2.00006 1.23224 2.94424 1.36508 3.99815V3.99989C1.62983 6.07968 2.61183 7.59114 3.43429 8.80259C4.25674 10.014 4.84787 10.9049 4.84787 11.7685C4.8462 11.8862 4.86794 12.003 4.91182 12.1122C4.9557 12.2214 5.02085 12.3208 5.10348 12.4046C5.18611 12.4884 5.28457 12.555 5.39313 12.6004C5.5017 12.6458 5.61822 12.6692 5.73591 12.6692C5.85359 12.6692 5.97011 12.6458 6.07868 12.6004C6.18725 12.555 6.28571 12.4884 6.36833 12.4046C6.45096 12.3208 6.51611 12.2214 6.55999 12.1122C6.60387 12.003 6.62561 11.8862 6.62395 11.7685C6.62395 11.7542 6.62062 11.7411 6.62048 11.7269C7.48941 13.6921 8.40003 14.4326 8.40003 14.4326H11.9522C11.9522 14.4326 12.8628 13.6921 13.7317 11.7269C13.7316 11.7411 13.7283 11.7542 13.7283 11.7685C13.7266 11.8862 13.7483 12.003 13.7922 12.1122C13.8361 12.2214 13.9013 12.3208 13.9839 12.4046C14.0665 12.4884 14.165 12.555 14.2735 12.6004C14.3821 12.6458 14.4986 12.6692 14.6163 12.6692C14.734 12.6692 14.8505 12.6458 14.9591 12.6004C15.0677 12.555 15.1661 12.4884 15.2487 12.4046C15.3314 12.3208 15.3965 12.2214 15.4404 12.1122C15.4843 12.003 15.506 11.8862 15.5044 11.7685C15.5044 10.9049 16.0955 10.014 16.9179 8.80259C17.7404 7.59114 18.7224 6.07968 18.9871 3.99989C19.1219 2.94447 18.2755 2.00006 17.2197 2.00006H3.13249ZM17.2249 3.77441C17.0155 5.41995 16.2528 6.62102 15.4488 7.80528C15.1628 8.2266 14.8741 8.65547 14.6059 9.09571C14.9531 7.67742 15.2046 5.92153 15.2615 3.77614H17.2197C17.2296 3.77614 17.2249 3.77441 17.2249 3.77441ZM3.12729 3.77614C3.12693 3.77329 3.12262 3.77614 3.13249 3.77614H5.09069C5.14757 5.92153 5.39911 7.67742 5.74631 9.09571C5.47812 8.65547 5.1894 8.2266 4.90337 7.80528C4.09967 6.62145 3.33708 5.42076 3.12729 3.77614ZM6.62395 16.2087C6.13375 16.2087 5.73591 16.6066 5.73591 17.0968C5.73591 17.5869 6.13375 17.9848 6.62395 17.9848H13.7283C14.2185 17.9848 14.6163 17.5869 14.6163 17.0968C14.6163 16.6066 14.2185 16.2087 13.7283 16.2087H6.62395Z" fill="white"/>
</g>
<defs>
<clipPath id="clip0_221_1512">
<rect width="18.55" height="18.55" fill="white" transform="translate(0.839081 0.129333)"/>
</clipPath>
</defs>
</svg>
