<svg width="22" height="22" viewBox="0 0 22 22" fill="none" xmlns="http://www.w3.org/2000/svg">
<g clip-path="url(#clip0_221_180)">
<path d="M10.1568 2.76752C5.29621 2.76752 1.31934 6.74439 1.31934 11.605C1.31934 16.4656 5.29621 20.4425 10.1568 20.4425C15.0175 20.4425 18.9943 16.4656 18.9943 11.605C18.9943 6.74439 15.0175 2.76752 10.1568 2.76752ZM10.1568 4.53502C11.0726 4.53502 11.9461 4.71673 12.7511 5.0373L10.1568 6.12646L7.56255 5.0373C8.36755 4.71673 9.24109 4.53502 10.1568 4.53502ZM4.76803 7.04473L4.94237 9.92555L3.10755 12.0124C3.0997 11.8767 3.08684 11.7426 3.08684 11.605C3.08684 9.87057 3.72167 8.27826 4.76803 7.04473ZM15.5456 7.04473C16.592 8.27826 17.2268 9.87057 17.2268 11.605C17.2268 11.7426 17.214 11.8767 17.2061 12.0124L15.3713 9.92555L15.5456 7.04473ZM10.1568 8.44975L13.4778 10.8576L12.1505 14.7603H8.16322L6.83587 10.8576L10.1568 8.44975ZM4.17254 15.3437L6.97568 16.0238L8.39279 18.442C6.62413 17.9827 5.12254 16.8551 4.17254 15.3437ZM16.1411 15.3437C15.1911 16.8551 13.6895 17.9827 11.9209 18.442L13.338 16.0238L16.1411 15.3437Z" fill="url(#paint0_linear_221_180)"/>
</g>
<defs>
<linearGradient id="paint0_linear_221_180" x1="18.5833" y1="0.917806" x2="3.99114" y2="22.0867" gradientUnits="userSpaceOnUse">
<stop stop-color="#00CB08"/>
<stop offset="1" stop-color="#00BF6F"/>
</linearGradient>
<clipPath id="clip0_221_180">
<rect width="21.2117" height="21.2117" fill="white" transform="translate(0 0.263916)"/>
</clipPath>
</defs>
</svg>
