<svg width="13" height="13" viewBox="0 0 13 13" fill="none" xmlns="http://www.w3.org/2000/svg">
<g clip-path="url(#clip0_221_1087)">
<path d="M2.09347 2.29147C1.49895 2.29147 1.02341 2.82315 1.09822 3.41662V3.4176C1.2473 4.58876 1.80028 5.43988 2.26342 6.12206C2.72655 6.80424 3.05942 7.30592 3.05942 7.79221C3.05848 7.85847 3.07073 7.92426 3.09544 7.98575C3.12015 8.04725 3.15683 8.10321 3.20336 8.1504C3.24989 8.1976 3.30533 8.23507 3.36647 8.26065C3.4276 8.28622 3.49322 8.29939 3.55949 8.29939C3.62576 8.29939 3.69137 8.28622 3.75251 8.26065C3.81364 8.23507 3.86909 8.1976 3.91561 8.1504C3.96214 8.10321 3.99883 8.04725 4.02354 7.98575C4.04825 7.92426 4.06049 7.85847 4.05955 7.79221C4.05955 7.78415 4.05768 7.77678 4.0576 7.76877C4.54691 8.87543 5.05969 9.29241 5.05969 9.29241H7.05995C7.05995 9.29241 7.57273 8.87543 8.06204 7.76877C8.06196 7.77678 8.06009 7.78415 8.06009 7.79221C8.05915 7.85847 8.07139 7.92426 8.0961 7.98575C8.12081 8.04725 8.1575 8.10321 8.20403 8.1504C8.25055 8.1976 8.306 8.23507 8.36713 8.26065C8.42827 8.28622 8.49388 8.29939 8.56015 8.29939C8.62642 8.29939 8.69203 8.28622 8.75317 8.26065C8.81431 8.23507 8.86975 8.1976 8.91628 8.1504C8.96281 8.10321 8.99949 8.04725 9.0242 7.98575C9.04891 7.92426 9.06116 7.85847 9.06022 7.79221C9.06022 7.30592 9.39309 6.80424 9.85622 6.12206C10.3194 5.43988 10.8723 4.58875 11.0214 3.4176C11.0973 2.82328 10.6207 2.29147 10.0262 2.29147H2.09347ZM10.0291 3.29063C9.91114 4.21725 9.4817 4.89359 9.02897 5.56046C8.86789 5.79771 8.70532 6.03922 8.55429 6.28712C8.74981 5.48847 8.89145 4.4997 8.92348 3.29161H10.0262C10.0317 3.29161 10.0291 3.29063 10.0291 3.29063ZM2.09054 3.29161C2.09034 3.29 2.08792 3.29161 2.09347 3.29161H3.19616C3.22819 4.4997 3.36983 5.48847 3.56535 6.28712C3.41433 6.03922 3.25174 5.79771 3.09067 5.56046C2.6381 4.89383 2.20868 4.21771 2.09054 3.29161ZM4.05955 10.2925C3.78352 10.2925 3.55949 10.5166 3.55949 10.7926C3.55949 11.0686 3.78352 11.2927 4.05955 11.2927H8.06009C8.33612 11.2927 8.56015 11.0686 8.56015 10.7926C8.56015 10.5166 8.33612 10.2925 8.06009 10.2925H4.05955Z" fill="white"/>
</g>
<defs>
<clipPath id="clip0_221_1087">
<rect width="11.9446" height="11.9446" fill="white" transform="translate(0.550049 0.18766)"/>
</clipPath>
</defs>
</svg>
