<svg width="13" height="13" viewBox="0 0 13 13" fill="none" xmlns="http://www.w3.org/2000/svg">
<g clip-path="url(#clip0_221_1195)">
<path d="M6.35858 1.59735C3.62151 1.59735 1.38208 3.83678 1.38208 6.57386C1.38208 9.31093 3.62151 11.5504 6.35858 11.5504C9.09566 11.5504 11.3351 9.31093 11.3351 6.57386C11.3351 3.83678 9.09566 1.59735 6.35858 1.59735ZM6.35858 2.59265C6.87425 2.59265 7.36615 2.69498 7.81946 2.8755L6.35858 3.48881L4.89771 2.8755C5.35102 2.69498 5.84292 2.59265 6.35858 2.59265ZM3.32408 4.0059L3.42225 5.62813L2.38904 6.80324C2.38462 6.72685 2.37738 6.65131 2.37738 6.57386C2.37738 5.59717 2.73486 4.70052 3.32408 4.0059ZM9.39309 4.0059C9.98231 4.70052 10.3398 5.59717 10.3398 6.57386C10.3398 6.65131 10.3325 6.72685 10.3281 6.80324L9.29492 5.62813L9.39309 4.0059ZM6.35858 4.79709L8.22866 6.15299L7.48121 8.35062H5.23596L4.48851 6.15299L6.35858 4.79709ZM2.98875 8.67915L4.56724 9.06211L5.36523 10.4238C4.36927 10.1652 3.52371 9.53023 2.98875 8.67915ZM9.72842 8.67915C9.19346 9.53023 8.3479 10.1652 7.35194 10.4238L8.14993 9.06211L9.72842 8.67915Z" fill="white"/>
</g>
<defs>
<clipPath id="clip0_221_1195">
<rect width="11.9446" height="11.9446" fill="white" transform="translate(0.639038 0.187622)"/>
</clipPath>
</defs>
</svg>
