<svg width="20" height="20" viewBox="0 0 20 20" fill="none" xmlns="http://www.w3.org/2000/svg">
<g clip-path="url(#clip0_221_1756)">
<path d="M3.13246 2.61731C2.07668 2.61731 1.2322 3.56149 1.36505 4.6154V4.61714C1.6298 6.69693 2.6118 8.20839 3.43425 9.41984C4.25671 10.6313 4.84784 11.5222 4.84784 12.3858C4.84617 12.5034 4.86791 12.6203 4.91179 12.7295C4.95567 12.8387 5.02082 12.9381 5.10345 13.0219C5.18608 13.1057 5.28454 13.1722 5.3931 13.2176C5.50167 13.2631 5.61819 13.2864 5.73588 13.2864C5.85356 13.2864 5.97008 13.2631 6.07865 13.2176C6.18722 13.1722 6.28568 13.1057 6.3683 13.0219C6.45093 12.9381 6.51608 12.8387 6.55996 12.7295C6.60384 12.6203 6.62558 12.5034 6.62392 12.3858C6.62392 12.3715 6.62059 12.3584 6.62045 12.3441C7.48938 14.3094 8.4 15.0499 8.4 15.0499H11.9522C11.9522 15.0499 12.8628 14.3094 13.7317 12.3441C13.7316 12.3584 13.7282 12.3715 13.7282 12.3858C13.7266 12.5034 13.7483 12.6203 13.7922 12.7295C13.8361 12.8387 13.9012 12.9381 13.9839 13.0219C14.0665 13.1057 14.1649 13.1722 14.2735 13.2176C14.3821 13.2631 14.4986 13.2864 14.6163 13.2864C14.734 13.2864 14.8505 13.2631 14.9591 13.2176C15.0676 13.1722 15.1661 13.1057 15.2487 13.0219C15.3313 12.9381 15.3965 12.8387 15.4404 12.7295C15.4842 12.6203 15.506 12.5034 15.5043 12.3858C15.5043 11.5222 16.0954 10.6313 16.9179 9.41984C17.7404 8.20839 18.7224 6.69692 18.9871 4.61714C19.1219 3.56172 18.2755 2.61731 17.2197 2.61731H3.13246ZM17.2249 4.39166C17.0154 6.0372 16.2528 7.23827 15.4488 8.42253C15.1628 8.84384 14.8741 9.27272 14.6059 9.71296C14.9531 8.29467 15.2046 6.53878 15.2615 4.39339H17.2197C17.2296 4.39339 17.2249 4.39166 17.2249 4.39166ZM3.12726 4.39339C3.1269 4.39054 3.12259 4.39339 3.13246 4.39339H5.09066C5.14754 6.53878 5.39908 8.29467 5.74628 9.71296C5.47809 9.27272 5.18937 8.84385 4.90334 8.42253C4.09963 7.2387 3.33705 6.03801 3.12726 4.39339ZM6.62392 16.826C6.13372 16.826 5.73588 17.2238 5.73588 17.714C5.73588 18.2042 6.13372 18.602 6.62392 18.602H13.7282C14.2184 18.602 14.6163 18.2042 14.6163 17.714C14.6163 17.2238 14.2184 16.826 13.7282 16.826H6.62392Z" fill="white"/>
</g>
<defs>
<clipPath id="clip0_221_1756">
<rect width="18.55" height="18.55" fill="white" transform="translate(0.83905 0.746582)"/>
</clipPath>
</defs>
</svg>
