<svg width="22" height="22" viewBox="0 0 22 22" fill="none" xmlns="http://www.w3.org/2000/svg">
<g clip-path="url(#clip0_221_985)">
<path d="M10.1567 2.76752C5.29609 2.76752 1.31921 6.74439 1.31921 11.605C1.31921 16.4656 5.29609 20.4425 10.1567 20.4425C15.0173 20.4425 18.9942 16.4656 18.9942 11.605C18.9942 6.74439 15.0173 2.76752 10.1567 2.76752ZM10.1567 4.53502C11.0725 4.53502 11.946 4.71673 12.751 5.0373L10.1567 6.12646L7.56242 5.0373C8.36743 4.71673 9.24097 4.53502 10.1567 4.53502ZM4.76791 7.04473L4.94224 9.92555L3.10743 12.0124C3.09957 11.8767 3.08671 11.7426 3.08671 11.605C3.08671 9.87057 3.72155 8.27826 4.76791 7.04473ZM15.5455 7.04473C16.5919 8.27826 17.2267 9.87057 17.2267 11.605C17.2267 11.7426 17.2139 11.8767 17.206 12.0124L15.3712 9.92555L15.5455 7.04473ZM10.1567 8.44975L13.4777 10.8576L12.1503 14.7603H8.1631L6.83575 10.8576L10.1567 8.44975ZM4.17241 15.3437L6.97556 16.0238L8.39267 18.442C6.624 17.9827 5.12242 16.8551 4.17241 15.3437ZM16.141 15.3437C15.191 16.8551 13.6894 17.9827 11.9208 18.442L13.3379 16.0238L16.141 15.3437Z" fill="url(#paint0_linear_221_985)"/>
</g>
<defs>
<linearGradient id="paint0_linear_221_985" x1="18.5832" y1="0.917806" x2="3.99102" y2="22.0867" gradientUnits="userSpaceOnUse">
<stop stop-color="#00CB08"/>
<stop offset="1" stop-color="#00BF6F"/>
</linearGradient>
<clipPath id="clip0_221_985">
<rect width="21.2117" height="21.2117" fill="white" transform="translate(0 0.263916)"/>
</clipPath>
</defs>
</svg>
