<svg width="22" height="22" viewBox="0 0 22 22" fill="none" xmlns="http://www.w3.org/2000/svg">
<g clip-path="url(#clip0_221_195)">
<path d="M9.51612 3.65125C9.04735 3.65125 8.59778 3.83746 8.26631 4.16893C7.93484 4.5004 7.74862 4.94997 7.74862 5.41875C7.74862 5.88752 7.93484 6.33709 8.26631 6.66856C8.59778 7.00003 9.04735 7.18625 9.51612 7.18625C9.98489 7.18625 10.4345 7.00003 10.7659 6.66856C11.0974 6.33709 11.2836 5.88752 11.2836 5.41875C11.2836 4.94997 11.0974 4.5004 10.7659 4.16893C10.4345 3.83746 9.98489 3.65125 9.51612 3.65125ZM17.3024 6.31113C17.1381 6.29622 16.9706 6.29833 16.8019 6.3163C16.1269 6.3882 15.4367 6.71659 14.8928 7.26047C13.9257 8.22759 13.6427 9.65135 14.2749 10.6401L13.0511 11.8639V11.605H10.5984L9.60415 9.74084C9.60415 9.74084 9.57937 9.69471 9.57653 9.68905L9.40392 9.36628L9.4022 9.368C9.35049 9.27147 9.32941 9.22244 9.28482 9.15052C8.88802 8.50273 8.17679 8.07 7.36198 8.07C6.61167 8.07 5.93866 8.42856 5.54097 9.00035C4.89141 9.93712 3.53617 11.6677 3.35058 12.7097C3.33732 12.7875 3.32987 12.8608 3.32987 12.9306C3.32987 13.1365 3.4913 13.8933 3.56289 14.1717C3.78824 15.0439 4.09271 16.1547 4.20671 16.5675L1.68665 19.2377L2.98293 20.4373L5.74465 17.5082C5.89665 17.3447 5.98112 17.1302 5.98112 16.9075V14.2079C5.98112 13.994 6.05809 13.7871 6.1986 13.6262L8.35792 11.1631L9.28828 12.9047C9.36371 13.0461 9.47615 13.1643 9.61357 13.2467C9.75099 13.3291 9.90823 13.3726 10.0685 13.3725H13.0511V13.1136L14.8997 11.265C15.8885 11.8972 17.3123 11.6141 18.2794 10.647C19.3668 9.55958 19.5957 7.8901 18.6229 6.91698C18.2578 6.55187 17.7954 6.35586 17.3024 6.31113ZM17.1868 7.19315C17.5057 7.21717 17.7912 7.33492 17.998 7.54182H17.9998C18.551 8.09243 18.4721 9.20467 17.6546 10.0222C16.8369 10.8398 15.7259 10.9174 15.1742 10.3657C14.6224 9.81396 14.7001 8.70292 15.5177 7.88531C15.9265 7.4765 16.4099 7.25298 16.8588 7.20005C16.9711 7.18682 17.0805 7.18514 17.1868 7.19315ZM18.3536 13.3725C18.1192 13.3725 17.8944 13.4656 17.7287 13.6313C17.563 13.7971 17.4699 14.0219 17.4699 14.2562C17.4699 14.4906 17.563 14.7154 17.7287 14.8812C17.8944 15.0469 18.1192 15.14 18.3536 15.14C18.588 15.14 18.8128 15.0469 18.9785 14.8812C19.1443 14.7154 19.2374 14.4906 19.2374 14.2562C19.2374 14.0219 19.1443 13.7971 18.9785 13.6313C18.8128 13.4656 18.588 13.3725 18.3536 13.3725ZM7.01331 14.0388L6.86487 14.2079V16.3897L7.8401 17.3649L8.66171 20.3959L10.3705 19.9402L9.48677 16.6797C9.44612 16.5294 9.36767 16.3922 9.25721 16.2827L7.01331 14.0388Z" fill="url(#paint0_linear_221_195)"/>
</g>
<defs>
<linearGradient id="paint0_linear_221_195" x1="18.8303" y1="1.89456" x2="5.20203" y2="22.5672" gradientUnits="userSpaceOnUse">
<stop stop-color="#00CB08"/>
<stop offset="1" stop-color="#00BF6F"/>
</linearGradient>
<clipPath id="clip0_221_195">
<rect width="21.2117" height="21.2117" fill="white" transform="translate(0.0876465 0.263916)"/>
</clipPath>
</defs>
</svg>
