<svg width="16" height="20" viewBox="0 0 16 20" fill="none" xmlns="http://www.w3.org/2000/svg">
<path d="M11.6485 0C11.138 0 10.6484 0.210017 10.2874 0.583848C9.92648 0.95768 9.72368 1.4647 9.72368 1.99338C9.72368 2.52206 9.92648 3.02908 10.2874 3.40291C10.6484 3.77675 11.138 3.98676 11.6485 3.98676C11.9013 3.98676 12.1516 3.9352 12.3851 3.83503C12.6186 3.73485 12.8308 3.58802 13.0095 3.40291C13.1883 3.21781 13.3301 2.99806 13.4268 2.75622C13.5235 2.51437 13.5733 2.25516 13.5733 1.99338C13.5733 1.4647 13.3705 0.95768 13.0095 0.583848C12.6486 0.210017 12.159 0 11.6485 0ZM8.76128 3.98871L4.38722 3.99066L1.06203 7.25715L2.3891 8.70352L5.15038 5.98598L6.52632 5.99182L0.5 19.0286L2.18045 20L4.43797 15.0944L10.4492 13.9907L11.6053 12.3808L8.42105 11.2264L10.0075 7.87619L11.3835 9.96691H15.5V7.97353H12.3985L10.4267 4.98151L10.4211 4.97761C10.2518 4.67712 10.0095 4.42773 9.71833 4.25425C9.42715 4.08076 9.09721 3.98922 8.76128 3.98871Z" fill="white"/>
</svg>
