<svg width="54" height="59" viewBox="0 0 54 59" fill="none" xmlns="http://www.w3.org/2000/svg">
<g filter="url(#filter0_d_221_1274)">
<path d="M30.6485 19.2902C30.138 19.2902 29.6484 19.5002 29.2874 19.8741C28.9265 20.2479 28.7237 20.7549 28.7237 21.2836C28.7237 21.8123 28.9265 22.3193 29.2874 22.6931C29.6484 23.067 30.138 23.277 30.6485 23.277C30.9013 23.277 31.1516 23.2254 31.3851 23.1252C31.6186 23.0251 31.8308 22.8782 32.0095 22.6931C32.1883 22.508 32.3301 22.2883 32.4268 22.0464C32.5235 21.8046 32.5733 21.5454 32.5733 21.2836C32.5733 20.7549 32.3705 20.2479 32.0095 19.8741C31.6486 19.5002 31.159 19.2902 30.6485 19.2902ZM27.7613 23.2789L23.3872 23.2809L20.062 26.5474L21.3891 27.9937L24.1504 25.2762L25.5263 25.282L19.5 38.3188L21.1805 39.2902L23.438 34.3846L29.4492 33.2809L30.6053 31.671L27.4211 30.5166L29.0075 27.1664L30.3835 29.2571H34.5V27.2637H31.3985L29.4267 24.2717L29.4211 24.2678C29.2518 23.9673 29.0095 23.718 28.7183 23.5445C28.4272 23.371 28.0972 23.2794 27.7613 23.2789Z" fill="url(#paint0_linear_221_1274)"/>
</g>
<defs>
<filter id="filter0_d_221_1274" x="0.5" y="0.290222" width="53" height="58" filterUnits="userSpaceOnUse" color-interpolation-filters="sRGB">
<feFlood flood-opacity="0" result="BackgroundImageFix"/>
<feColorMatrix in="SourceAlpha" type="matrix" values="0 0 0 0 0 0 0 0 0 0 0 0 0 0 0 0 0 0 127 0" result="hardAlpha"/>
<feOffset/>
<feGaussianBlur stdDeviation="9.5"/>
<feComposite in2="hardAlpha" operator="out"/>
<feColorMatrix type="matrix" values="0 0 0 0 0.0728993 0 0 0 0 0.920833 0 0 0 0 0.666453 0 0 0 0.61 0"/>
<feBlend mode="normal" in2="BackgroundImageFix" result="effect1_dropShadow_221_1274"/>
<feBlend mode="normal" in="SourceGraphic" in2="effect1_dropShadow_221_1274" result="shape"/>
</filter>
<linearGradient id="paint0_linear_221_1274" x1="34.1512" y1="17.1972" x2="16.5462" y2="36.3519" gradientUnits="userSpaceOnUse">
<stop stop-color="#00CB08"/>
<stop offset="1" stop-color="#00BF6F"/>
</linearGradient>
</defs>
</svg>
