<svg width="20" height="21" viewBox="0 0 20 21" fill="none" xmlns="http://www.w3.org/2000/svg">
<path d="M2.87783 0.291687C1.71851 0.291687 0.77951 1.2754 0.77951 2.48993V17.8776C0.77951 19.0921 1.71851 20.0759 2.87783 20.0759H17.5661C18.7254 20.0759 19.6644 19.0921 19.6644 17.8776V2.48993C19.6644 1.2754 18.7254 0.291687 17.5661 0.291687H2.87783ZM2.87783 2.48993H17.5661V17.8776H2.87783V2.48993ZM9.69738 4.68817C7.09021 4.68817 4.97615 6.9029 4.97615 9.63421C4.97615 12.3655 7.09021 14.5803 9.69738 14.5803C10.6206 14.5803 11.4744 14.292 12.2014 13.8117L14.726 16.4565L16.2095 14.9023L13.685 12.2575C14.1435 11.4958 14.4186 10.6014 14.4186 9.63421C14.4186 6.9029 12.3045 4.68817 9.69738 4.68817ZM9.69738 6.88641C11.1463 6.88641 12.3203 8.11633 12.3203 9.63421C12.3203 11.1521 11.1463 12.382 9.69738 12.382C8.24848 12.382 7.07447 11.1521 7.07447 9.63421C7.07447 8.11633 8.24848 6.88641 9.69738 6.88641Z" fill="#0C1C18"/>
</svg>
