<svg width="20" height="20" viewBox="0 0 20 20" fill="none" xmlns="http://www.w3.org/2000/svg">
<path d="M2.22222 0C0.994444 0 0 0.994444 0 2.22222V17.7778C0 19.0056 0.994444 20 2.22222 20H17.7778C19.0056 20 20 19.0056 20 17.7778V2.22222C20 0.994444 19.0056 0 17.7778 0H2.22222ZM2.22222 2.22222H17.7778V17.7778H2.22222V2.22222ZM9.44444 4.44444C6.68333 4.44444 4.44444 6.68333 4.44444 9.44444C4.44444 12.2056 6.68333 14.4444 9.44444 14.4444C10.4222 14.4444 11.3264 14.1531 12.0964 13.6675L14.77 16.3411L16.3411 14.77L13.6675 12.0964C14.1531 11.3264 14.4444 10.4222 14.4444 9.44444C14.4444 6.68333 12.2056 4.44444 9.44444 4.44444ZM9.44444 6.66667C10.9789 6.66667 12.2222 7.91 12.2222 9.44444C12.2222 10.9789 10.9789 12.2222 9.44444 12.2222C7.91 12.2222 6.66667 10.9789 6.66667 9.44444C6.66667 7.91 7.91 6.66667 9.44444 6.66667Z" fill="white"/>
</svg>
