<svg width="16" height="16" viewBox="0 0 16 16" fill="none" xmlns="http://www.w3.org/2000/svg">
<path d="M8.35138 0.527649C4.2244 0.527649 0.879028 3.87302 0.879028 8C0.879028 12.127 4.2244 15.4723 8.35138 15.4723C12.4784 15.4723 15.8237 12.127 15.8237 8C15.8237 3.87302 12.4784 0.527649 8.35138 0.527649ZM8.35138 2.58254C9.69266 2.58254 10.7799 3.66977 10.7799 5.01106C10.7799 6.35234 9.69266 7.43957 8.35138 7.43957C7.01009 7.43957 5.92286 6.35234 5.92286 5.01106C5.92286 3.66977 7.01009 2.58254 8.35138 2.58254ZM8.35138 13.9779C6.28154 13.9779 4.45828 12.9258 3.38525 11.3274C4.2229 10.1094 6.89128 9.49447 8.35138 9.49447C9.81147 9.49447 12.4798 10.1094 13.3175 11.3274C12.2445 12.9258 10.4212 13.9779 8.35138 13.9779Z" fill="white"/>
</svg>
