<svg width="20" height="20" viewBox="0 0 20 20" fill="none" xmlns="http://www.w3.org/2000/svg">
<path d="M10.0845 0C9.9475 0 9.81049 0.0117927 9.7087 0.0628931L0.689005 4.08805H0.501094C0.101785 4.39072 0 4.78774 0 5.18868V15.0629C0 15.4638 0.19574 15.8726 0.595049 15.9748L9.61475 20H10.2098L19.2295 15.9748C19.6288 15.7744 19.8559 15.4638 19.8559 15.0629V5.18868C20.1573 4.78774 19.9381 4.38286 19.6366 4.18239L19.5427 4.08805L10.523 0.0628931C10.3742 0.0117927 10.2215 0 10.0845 0ZM10.0219 2.07547L16.5361 5L10.0219 7.92453L3.50766 5L10.0219 2.07547ZM10.0219 4.30818C9.19195 4.30818 8.5186 4.61085 8.5186 5C8.5186 5.38915 9.19195 5.69182 10.0219 5.69182C10.8518 5.69182 11.5252 5.38915 11.5252 5C11.5252 4.61085 10.8518 4.30818 10.0219 4.30818ZM2.00438 6.50943L5.19885 8.01887L9.0197 9.71698V17.5786L2.00438 14.4654V6.50943ZM18.0394 6.50943V14.3711L11.0241 17.5786V9.71698L14.8449 8.01887L18.0394 6.50943ZM3.25711 7.83019C3.13575 7.81054 2.99874 7.8184 2.88129 7.86164C2.41152 8.03459 2.21578 8.68318 2.44283 9.30818C2.66989 9.93318 3.25711 10.3302 3.72689 10.1572C4.19666 9.98428 4.3924 9.33569 4.16535 8.71069C3.99309 8.23899 3.6251 7.89308 3.25711 7.83019ZM16.129 8.96226C15.761 9.02516 15.4243 9.37107 15.2521 9.84277C15.025 10.4678 15.2207 11.1164 15.6905 11.2893C16.1603 11.4623 16.7162 11.0653 16.9432 10.4403C17.1703 9.81525 16.9746 9.16667 16.5048 8.99371C16.3873 8.95047 16.2503 8.94261 16.129 8.96226ZM5.26149 10.8491C5.14013 10.8294 5.00311 10.8373 4.88567 10.8805C4.41589 11.0535 4.22015 11.702 4.44721 12.327C4.67427 12.952 5.26149 13.3491 5.73127 13.1761C6.20104 13.0031 6.39678 12.3546 6.16972 11.7296C5.99747 11.2579 5.62948 10.912 5.26149 10.8491ZM12.9345 13.0818C12.5743 13.1289 12.2142 13.4355 12.0576 13.8679C11.8501 14.4418 12.0576 15.0472 12.5274 15.2201C12.9971 15.3931 13.5413 15.0393 13.7488 14.4654C13.9563 13.8915 13.7488 13.2862 13.279 13.1132C13.1616 13.07 13.0559 13.066 12.9345 13.0818ZM7.76696 13.8679C7.6456 13.8483 7.50858 13.8561 7.39114 13.8994C6.92136 14.0723 6.72562 14.7209 6.95268 15.3459C7.17974 15.9709 7.76696 16.3679 8.23674 16.195C8.70651 16.022 8.90225 15.3734 8.67519 14.7484C8.50294 14.2767 8.13495 13.9308 7.76696 13.8679Z" fill="white"/>
</svg>
