<svg width="59" height="59" viewBox="0 0 59 59" fill="none" xmlns="http://www.w3.org/2000/svg">
<g filter="url(#filter0_d_221_266)">
<path d="M29.5845 19.2902C29.4475 19.2902 29.3105 19.302 29.2087 19.3531L20.189 23.3783H20.0011C19.6018 23.6809 19.5 24.078 19.5 24.4789V34.3531C19.5 34.7541 19.6957 35.1629 20.095 35.2651L29.1147 39.2902H29.7098L38.7295 35.2651C39.1288 35.0646 39.3559 34.7541 39.3559 34.3531V24.4789C39.6573 24.078 39.4381 23.6731 39.1366 23.4726L39.0427 23.3783L30.023 19.3531C29.8742 19.302 29.7215 19.2902 29.5845 19.2902ZM29.5219 21.3657L36.0361 24.2902L29.5219 27.2148L23.0077 24.2902L29.5219 21.3657ZM29.5219 23.5984C28.6919 23.5984 28.0186 23.9011 28.0186 24.2902C28.0186 24.6794 28.6919 24.982 29.5219 24.982C30.3518 24.982 31.0252 24.6794 31.0252 24.2902C31.0252 23.9011 30.3518 23.5984 29.5219 23.5984ZM21.5044 25.7997L24.6989 27.3091L28.5197 29.0072V36.8688L21.5044 33.7556V25.7997ZM37.5394 25.7997V33.6613L30.5241 36.8688V29.0072L34.3449 27.3091L37.5394 25.7997ZM22.7571 27.1204C22.6358 27.1008 22.4987 27.1086 22.3813 27.1519C21.9115 27.3248 21.7158 27.9734 21.9428 28.5984C22.1699 29.2234 22.7571 29.6204 23.2269 29.4475C23.6967 29.2745 23.8924 28.6259 23.6653 28.0009C23.4931 27.5292 23.1251 27.1833 22.7571 27.1204ZM35.629 28.2525C35.261 28.3154 34.9243 28.6613 34.7521 29.133C34.525 29.758 34.7207 30.4066 35.1905 30.5795C35.6603 30.7525 36.2162 30.3555 36.4432 29.7305C36.6703 29.1055 36.4746 28.4569 36.0048 28.2839C35.8873 28.2407 35.7503 28.2328 35.629 28.2525ZM24.7615 30.1393C24.6401 30.1196 24.5031 30.1275 24.3857 30.1707C23.9159 30.3437 23.7202 30.9923 23.9472 31.6173C24.1743 32.2423 24.7615 32.6393 25.2313 32.4663C25.701 32.2934 25.8968 31.6448 25.6697 31.0198C25.4975 30.5481 25.1295 30.2022 24.7615 30.1393ZM32.4345 32.372C32.0743 32.4192 31.7142 32.7258 31.5576 33.1581C31.3501 33.732 31.5576 34.3374 32.0274 34.5103C32.4971 34.6833 33.0413 34.3295 33.2488 33.7556C33.4563 33.1817 33.2488 32.5764 32.779 32.4034C32.6616 32.3602 32.5559 32.3563 32.4345 32.372ZM27.267 33.1581C27.1456 33.1385 27.0086 33.1464 26.8911 33.1896C26.4214 33.3625 26.2256 34.0111 26.4527 34.6361C26.6797 35.2611 27.267 35.6581 27.7367 35.4852C28.2065 35.3122 28.4023 34.6637 28.1752 34.0387C28.0029 33.567 27.635 33.221 27.267 33.1581Z" fill="url(#paint0_linear_221_266)"/>
</g>
<defs>
<filter id="filter0_d_221_266" x="0.5" y="0.290222" width="58" height="58" filterUnits="userSpaceOnUse" color-interpolation-filters="sRGB">
<feFlood flood-opacity="0" result="BackgroundImageFix"/>
<feColorMatrix in="SourceAlpha" type="matrix" values="0 0 0 0 0 0 0 0 0 0 0 0 0 0 0 0 0 0 127 0" result="hardAlpha"/>
<feOffset/>
<feGaussianBlur stdDeviation="9.5"/>
<feComposite in2="hardAlpha" operator="out"/>
<feColorMatrix type="matrix" values="0 0 0 0 0.0728993 0 0 0 0 0.920833 0 0 0 0 0.666453 0 0 0 0.61 0"/>
<feBlend mode="normal" in2="BackgroundImageFix" result="effect1_dropShadow_221_266"/>
<feBlend mode="normal" in="SourceGraphic" in2="effect1_dropShadow_221_266" result="shape"/>
</filter>
<linearGradient id="paint0_linear_221_266" x1="39.0349" y1="17.1972" x2="22.5233" y2="41.1507" gradientUnits="userSpaceOnUse">
<stop stop-color="#00CB08"/>
<stop offset="1" stop-color="#00BF6F"/>
</linearGradient>
</defs>
</svg>
