<svg width="21" height="20" viewBox="0 0 21 20" fill="none" xmlns="http://www.w3.org/2000/svg">
<path d="M2.72222 0C1.49444 0 0.5 0.994444 0.5 2.22222C0.5 3.45 1.49444 4.44444 2.72222 4.44444C3.95 4.44444 4.94444 3.45 4.94444 2.22222C4.94444 0.994444 3.95 0 2.72222 0ZM10.5 0C9.27222 0 8.27778 0.994444 8.27778 2.22222C8.27778 3.45 9.27222 4.44444 10.5 4.44444C11.7278 4.44444 12.7222 3.45 12.7222 2.22222C12.7222 0.994444 11.7278 0 10.5 0ZM18.2778 0C17.05 0 16.0556 0.994444 16.0556 2.22222C16.0556 3.45 17.05 4.44444 18.2778 4.44444C19.5056 4.44444 20.5 3.45 20.5 2.22222C20.5 0.994444 19.5056 0 18.2778 0ZM2.72222 7.77778C1.49444 7.77778 0.5 8.77222 0.5 10C0.5 11.2278 1.49444 12.2222 2.72222 12.2222C3.95 12.2222 4.94444 11.2278 4.94444 10C4.94444 8.77222 3.95 7.77778 2.72222 7.77778ZM10.5 7.77778C9.27222 7.77778 8.27778 8.77222 8.27778 10C8.27778 11.2278 9.27222 12.2222 10.5 12.2222C11.7278 12.2222 12.7222 11.2278 12.7222 10C12.7222 8.77222 11.7278 7.77778 10.5 7.77778ZM18.2778 7.77778C17.05 7.77778 16.0556 8.77222 16.0556 10C16.0556 11.2278 17.05 12.2222 18.2778 12.2222C19.5056 12.2222 20.5 11.2278 20.5 10C20.5 8.77222 19.5056 7.77778 18.2778 7.77778ZM2.72222 15.5556C1.49444 15.5556 0.5 16.55 0.5 17.7778C0.5 19.0056 1.49444 20 2.72222 20C3.95 20 4.94444 19.0056 4.94444 17.7778C4.94444 16.55 3.95 15.5556 2.72222 15.5556ZM10.5 15.5556C9.27222 15.5556 8.27778 16.55 8.27778 17.7778C8.27778 19.0056 9.27222 20 10.5 20C11.7278 20 12.7222 19.0056 12.7222 17.7778C12.7222 16.55 11.7278 15.5556 10.5 15.5556ZM18.2778 15.5556C17.05 15.5556 16.0556 16.55 16.0556 17.7778C16.0556 19.0056 17.05 20 18.2778 20C19.5056 20 20.5 19.0056 20.5 17.7778C20.5 16.55 19.5056 15.5556 18.2778 15.5556Z" fill="white"/>
</svg>
