<svg width="19" height="18" viewBox="0 0 19 18" fill="none" xmlns="http://www.w3.org/2000/svg">
<path d="M9.50001 0C4.63938 0 0.662506 3.97687 0.662506 8.8375C0.662506 13.6981 4.63938 17.675 9.50001 17.675C14.3606 17.675 18.3375 13.6981 18.3375 8.8375C18.3375 3.97687 14.3606 0 9.50001 0ZM9.50001 1.7675C10.4158 1.7675 11.2893 1.94921 12.0943 2.26979L9.50001 3.35894L6.90572 2.26979C7.71072 1.94921 8.58426 1.7675 9.50001 1.7675ZM4.1112 4.27721L4.28554 7.15803L2.45072 9.24485C2.44287 9.10919 2.43001 8.97505 2.43001 8.8375C2.43001 7.10305 3.06484 5.51074 4.1112 4.27721ZM14.8888 4.27721C15.9352 5.51074 16.57 7.10305 16.57 8.8375C16.57 8.97505 16.5571 9.10919 16.5493 9.24485L14.7145 7.15803L14.8888 4.27721ZM9.50001 5.68224L12.821 8.09011L11.4936 11.9928H7.50639L6.17904 8.09011L9.50001 5.68224ZM3.51571 12.5762L6.31885 13.2562L7.73596 15.6745C5.9673 15.2152 4.46571 14.0876 3.51571 12.5762ZM15.4843 12.5762C14.5343 14.0876 13.0327 15.2152 11.2641 15.6745L12.6812 13.2562L15.4843 12.5762Z" fill="white"/>
</svg>
