<svg width="15" height="20" viewBox="0 0 15 20" fill="none" xmlns="http://www.w3.org/2000/svg">
<path d="M11.1485 0C10.638 0 10.1484 0.210017 9.78745 0.583848C9.42648 0.95768 9.22368 1.4647 9.22368 1.99338C9.22368 2.52206 9.42648 3.02908 9.78745 3.40291C10.1484 3.77675 10.638 3.98676 11.1485 3.98676C11.4013 3.98676 11.6516 3.9352 11.8851 3.83503C12.1186 3.73485 12.3308 3.58802 12.5095 3.40291C12.6883 3.21781 12.8301 2.99806 12.9268 2.75622C13.0235 2.51437 13.0733 2.25516 13.0733 1.99338C13.0733 1.4647 12.8705 0.95768 12.5095 0.583848C12.1486 0.210017 11.659 0 11.1485 0ZM8.26128 3.98871L3.88722 3.99066L0.56203 7.25715L1.8891 8.70352L4.65038 5.98598L6.02632 5.99182L0 19.0286L1.68045 20L3.93797 15.0944L9.94925 13.9907L11.1053 12.3808L7.92105 11.2264L9.50752 7.87619L10.8835 9.96691H15V7.97353H11.8985L9.92669 4.98151L9.92105 4.97761C9.75178 4.67712 9.50951 4.42773 9.21833 4.25425C8.92715 4.08076 8.59721 3.98922 8.26128 3.98871Z" fill="white"/>
</svg>
