<svg width="16" height="16" viewBox="0 0 16 16" fill="none" xmlns="http://www.w3.org/2000/svg">
<path d="M8.35144 0.527588C4.22446 0.527588 0.879089 3.87296 0.879089 7.99993C0.879089 12.1269 4.22446 15.4723 8.35144 15.4723C12.4784 15.4723 15.8238 12.1269 15.8238 7.99993C15.8238 3.87296 12.4784 0.527588 8.35144 0.527588ZM8.35144 2.58248C9.69272 2.58248 10.7799 3.66971 10.7799 5.011C10.7799 6.35228 9.69272 7.43951 8.35144 7.43951C7.01015 7.43951 5.92292 6.35228 5.92292 5.011C5.92292 3.66971 7.01015 2.58248 8.35144 2.58248ZM8.35144 13.9778C6.2816 13.9778 4.45834 12.9257 3.38531 11.3274C4.22296 10.1094 6.89134 9.4944 8.35144 9.4944C9.81153 9.4944 12.4799 10.1094 13.3176 11.3274C12.2445 12.9257 10.4213 13.9778 8.35144 13.9778Z" fill="white"/>
</svg>
