<svg width="20" height="20" viewBox="0 0 20 20" fill="none" xmlns="http://www.w3.org/2000/svg">
<path d="M2.22222 0C0.994444 0 0 0.994444 0 2.22222C0 3.45 0.994444 4.44444 2.22222 4.44444C3.45 4.44444 4.44444 3.45 4.44444 2.22222C4.44444 0.994444 3.45 0 2.22222 0ZM10 0C8.77222 0 7.77778 0.994444 7.77778 2.22222C7.77778 3.45 8.77222 4.44444 10 4.44444C11.2278 4.44444 12.2222 3.45 12.2222 2.22222C12.2222 0.994444 11.2278 0 10 0ZM17.7778 0C16.55 0 15.5556 0.994444 15.5556 2.22222C15.5556 3.45 16.55 4.44444 17.7778 4.44444C19.0056 4.44444 20 3.45 20 2.22222C20 0.994444 19.0056 0 17.7778 0ZM2.22222 7.77778C0.994444 7.77778 0 8.77222 0 10C0 11.2278 0.994444 12.2222 2.22222 12.2222C3.45 12.2222 4.44444 11.2278 4.44444 10C4.44444 8.77222 3.45 7.77778 2.22222 7.77778ZM10 7.77778C8.77222 7.77778 7.77778 8.77222 7.77778 10C7.77778 11.2278 8.77222 12.2222 10 12.2222C11.2278 12.2222 12.2222 11.2278 12.2222 10C12.2222 8.77222 11.2278 7.77778 10 7.77778ZM17.7778 7.77778C16.55 7.77778 15.5556 8.77222 15.5556 10C15.5556 11.2278 16.55 12.2222 17.7778 12.2222C19.0056 12.2222 20 11.2278 20 10C20 8.77222 19.0056 7.77778 17.7778 7.77778ZM2.22222 15.5556C0.994444 15.5556 0 16.55 0 17.7778C0 19.0056 0.994444 20 2.22222 20C3.45 20 4.44444 19.0056 4.44444 17.7778C4.44444 16.55 3.45 15.5556 2.22222 15.5556ZM10 15.5556C8.77222 15.5556 7.77778 16.55 7.77778 17.7778C7.77778 19.0056 8.77222 20 10 20C11.2278 20 12.2222 19.0056 12.2222 17.7778C12.2222 16.55 11.2278 15.5556 10 15.5556ZM17.7778 15.5556C16.55 15.5556 15.5556 16.55 15.5556 17.7778C15.5556 19.0056 16.55 20 17.7778 20C19.0056 20 20 19.0056 20 17.7778C20 16.55 19.0056 15.5556 17.7778 15.5556Z" fill="white"/>
</svg>
