<svg width="16" height="16" viewBox="0 0 16 16" fill="none" xmlns="http://www.w3.org/2000/svg">
<path d="M8.35144 0.527649C4.22446 0.527649 0.879089 3.87302 0.879089 8C0.879089 12.127 4.22446 15.4723 8.35144 15.4723C12.4784 15.4723 15.8238 12.127 15.8238 8C15.8238 3.87302 12.4784 0.527649 8.35144 0.527649ZM8.35144 2.58254C9.69272 2.58254 10.7799 3.66977 10.7799 5.01106C10.7799 6.35234 9.69272 7.43957 8.35144 7.43957C7.01015 7.43957 5.92292 6.35234 5.92292 5.01106C5.92292 3.66977 7.01015 2.58254 8.35144 2.58254ZM8.35144 13.9779C6.2816 13.9779 4.45834 12.9258 3.38531 11.3274C4.22296 10.1094 6.89134 9.49447 8.35144 9.49447C9.81153 9.49447 12.4799 10.1094 13.3176 11.3274C12.2445 12.9258 10.4213 13.9779 8.35144 13.9779Z" fill="white"/>
</svg>
