<svg width="58" height="59" viewBox="0 0 58 59" fill="none" xmlns="http://www.w3.org/2000/svg">
<g filter="url(#filter0_d_221_1819)">
<path d="M21.2222 19.2902C19.9944 19.2902 19 20.2847 19 21.5124C19 22.7402 19.9944 23.7347 21.2222 23.7347C22.45 23.7347 23.4444 22.7402 23.4444 21.5124C23.4444 20.2847 22.45 19.2902 21.2222 19.2902ZM29 19.2902C27.7722 19.2902 26.7778 20.2847 26.7778 21.5124C26.7778 22.7402 27.7722 23.7347 29 23.7347C30.2278 23.7347 31.2222 22.7402 31.2222 21.5124C31.2222 20.2847 30.2278 19.2902 29 19.2902ZM36.7778 19.2902C35.55 19.2902 34.5556 20.2847 34.5556 21.5124C34.5556 22.7402 35.55 23.7347 36.7778 23.7347C38.0056 23.7347 39 22.7402 39 21.5124C39 20.2847 38.0056 19.2902 36.7778 19.2902ZM21.2222 27.068C19.9944 27.068 19 28.0624 19 29.2902C19 30.518 19.9944 31.5124 21.2222 31.5124C22.45 31.5124 23.4444 30.518 23.4444 29.2902C23.4444 28.0624 22.45 27.068 21.2222 27.068ZM29 27.068C27.7722 27.068 26.7778 28.0624 26.7778 29.2902C26.7778 30.518 27.7722 31.5124 29 31.5124C30.2278 31.5124 31.2222 30.518 31.2222 29.2902C31.2222 28.0624 30.2278 27.068 29 27.068ZM36.7778 27.068C35.55 27.068 34.5556 28.0624 34.5556 29.2902C34.5556 30.518 35.55 31.5124 36.7778 31.5124C38.0056 31.5124 39 30.518 39 29.2902C39 28.0624 38.0056 27.068 36.7778 27.068ZM21.2222 34.8458C19.9944 34.8458 19 35.8402 19 37.068C19 38.2958 19.9944 39.2902 21.2222 39.2902C22.45 39.2902 23.4444 38.2958 23.4444 37.068C23.4444 35.8402 22.45 34.8458 21.2222 34.8458ZM29 34.8458C27.7722 34.8458 26.7778 35.8402 26.7778 37.068C26.7778 38.2958 27.7722 39.2902 29 39.2902C30.2278 39.2902 31.2222 38.2958 31.2222 37.068C31.2222 35.8402 30.2278 34.8458 29 34.8458ZM36.7778 34.8458C35.55 34.8458 34.5556 35.8402 34.5556 37.068C34.5556 38.2958 35.55 39.2902 36.7778 39.2902C38.0056 39.2902 39 38.2958 39 37.068C39 35.8402 38.0056 34.8458 36.7778 34.8458Z" fill="url(#paint0_linear_221_1819)"/>
</g>
<defs>
<filter id="filter0_d_221_1819" x="0" y="0.290222" width="58" height="58" filterUnits="userSpaceOnUse" color-interpolation-filters="sRGB">
<feFlood flood-opacity="0" result="BackgroundImageFix"/>
<feColorMatrix in="SourceAlpha" type="matrix" values="0 0 0 0 0 0 0 0 0 0 0 0 0 0 0 0 0 0 127 0" result="hardAlpha"/>
<feOffset/>
<feGaussianBlur stdDeviation="9.5"/>
<feComposite in2="hardAlpha" operator="out"/>
<feColorMatrix type="matrix" values="0 0 0 0 0.0728993 0 0 0 0 0.920833 0 0 0 0 0.666453 0 0 0 0.61 0"/>
<feBlend mode="normal" in2="BackgroundImageFix" result="effect1_dropShadow_221_1819"/>
<feBlend mode="normal" in="SourceGraphic" in2="effect1_dropShadow_221_1819" result="shape"/>
</filter>
<linearGradient id="paint0_linear_221_1819" x1="38.5349" y1="17.1972" x2="22.0233" y2="41.1507" gradientUnits="userSpaceOnUse">
<stop stop-color="#00CB08"/>
<stop offset="1" stop-color="#00BF6F"/>
</linearGradient>
</defs>
</svg>
