<svg width="21" height="20" viewBox="0 0 21 20" fill="none" xmlns="http://www.w3.org/2000/svg">
<path d="M2.72222 0C1.49444 0 0.5 0.994444 0.5 2.22222V17.7778C0.5 19.0056 1.49444 20 2.72222 20H18.2778C19.5056 20 20.5 19.0056 20.5 17.7778V2.22222C20.5 0.994444 19.5056 0 18.2778 0H2.72222ZM2.72222 2.22222H18.2778V17.7778H2.72222V2.22222ZM9.94444 4.44444C7.18333 4.44444 4.94444 6.68333 4.94444 9.44444C4.94444 12.2056 7.18333 14.4444 9.94444 14.4444C10.9222 14.4444 11.8264 14.1531 12.5964 13.6675L15.27 16.3411L16.8411 14.77L14.1675 12.0964C14.6531 11.3264 14.9444 10.4222 14.9444 9.44444C14.9444 6.68333 12.7056 4.44444 9.94444 4.44444ZM9.94444 6.66667C11.4789 6.66667 12.7222 7.91 12.7222 9.44444C12.7222 10.9789 11.4789 12.2222 9.94444 12.2222C8.41 12.2222 7.16667 10.9789 7.16667 9.44444C7.16667 7.91 8.41 6.66667 9.94444 6.66667Z" fill="white"/>
</svg>
