<svg width="16" height="16" viewBox="0 0 16 16" fill="none" xmlns="http://www.w3.org/2000/svg">
<path d="M8.35125 0.527649C4.22428 0.527649 0.878906 3.87302 0.878906 8C0.878906 12.127 4.22428 15.4723 8.35125 15.4723C12.4782 15.4723 15.8236 12.127 15.8236 8C15.8236 3.87302 12.4782 0.527649 8.35125 0.527649ZM8.35125 2.58254C9.69254 2.58254 10.7798 3.66977 10.7798 5.01106C10.7798 6.35234 9.69254 7.43957 8.35125 7.43957C7.00997 7.43957 5.92274 6.35234 5.92274 5.01106C5.92274 3.66977 7.00997 2.58254 8.35125 2.58254ZM8.35125 13.9779C6.28141 13.9779 4.45816 12.9258 3.38513 11.3274C4.22278 10.1094 6.89116 9.49447 8.35125 9.49447C9.81135 9.49447 12.4797 10.1094 13.3174 11.3274C12.2443 12.9258 10.4211 13.9779 8.35125 13.9779Z" fill="white"/>
</svg>
