<svg width="16" height="16" viewBox="0 0 16 16" fill="none" xmlns="http://www.w3.org/2000/svg">
<path d="M8.35141 0.527649C4.22443 0.527649 0.879059 3.87302 0.879059 8C0.879059 12.127 4.22443 15.4723 8.35141 15.4723C12.4784 15.4723 15.8238 12.127 15.8238 8C15.8238 3.87302 12.4784 0.527649 8.35141 0.527649ZM8.35141 2.58254C9.69269 2.58254 10.7799 3.66977 10.7799 5.01106C10.7799 6.35234 9.69269 7.43957 8.35141 7.43957C7.01012 7.43957 5.92289 6.35234 5.92289 5.01106C5.92289 3.66977 7.01012 2.58254 8.35141 2.58254ZM8.35141 13.9779C6.28157 13.9779 4.45831 12.9258 3.38528 11.3274C4.22293 10.1094 6.89131 9.49447 8.35141 9.49447C9.8115 9.49447 12.4799 10.1094 13.3175 11.3274C12.2445 12.9258 10.4212 13.9779 8.35141 13.9779Z" fill="white"/>
</svg>
